SplineFontDB: 3.0
FontName: Alfphafat
FullName: Alfphafat
FamilyName: Alfphafat
Weight: Book
Copyright: Copyright (c) 2007-2010, OSP (http://ospublish.constantvzw.org)\nThe Alfphabet family is based on the Belgian road signage (1945-1975, originally from 3M system working for the Marshall plan after the end of the war).\nAlfphabet IV was redrawn by Pierre Huyghebaert and Ludi at Speculoos studio in 2007.\nAlfphafat was fattened quickly by Pierre Huyghebaert at \nOSP studio for the LGRU visual language in 2012.\n\n
Version: 001.000
ItalicAngle: 0
UnderlinePosition: -51
UnderlineWidth: 51
Ascent: 819
Descent: 205
sfntRevision: 0x00010000
LayerCount: 2
Layer: 0 1 "Arri+AOgA-re"  1
Layer: 1 1 "Avant"  0
XUID: [1021 530 2138313645 14447064]
FSType: 4
OS2Version: 3
OS2_WeightWidthSlopeOnly: 0
OS2_UseTypoMetrics: 1
CreationTime: 1232070292
ModificationTime: 1347362273
PfmFamily: 17
TTFWeight: 400
TTFWidth: 5
LineGap: 63
VLineGap: 0
Panose: 2 11 7 7 1 1 1 3 12 3
OS2TypoAscent: 729
OS2TypoAOffset: 0
OS2TypoDescent: -124
OS2TypoDOffset: 0
OS2TypoLinegap: 63
OS2WinAscent: 986
OS2WinAOffset: 0
OS2WinDescent: 229
OS2WinDOffset: 0
HheadAscent: 729
HheadAOffset: 0
HheadDescent: -124
HheadDOffset: 0
OS2SubXSize: 717
OS2SubYSize: 666
OS2SubXOff: 0
OS2SubYOff: 143
OS2SupXSize: 717
OS2SupYSize: 666
OS2SupXOff: 0
OS2SupYOff: 488
OS2StrikeYSize: 51
OS2StrikeYPos: 256
OS2Vendor: 'pyrs'
OS2CodePages: 00000001.00000000
OS2UnicodeRanges: 00000001.00000000.00000000.00000000
Lookup: 4 0 0 "'clig' Ligatures contextuelles dans Latin lookup 0"  {"sous-table 'clig' Ligatures contextuelles dans Latin lookup 0"  } ['clig' ('latn' <'dflt' > ) ]
MarkAttachClasses: 1
DEI: 91125
TtTable: prep
PUSHW_1
 0
CALL
EndTTInstrs
TtTable: fpgm
PUSHW_1
 0
FDEF
MPPEM
PUSHW_1
 8
LT
IF
PUSHB_2
 1
 1
INSTCTRL
EIF
PUSHW_1
 511
SCANCTRL
PUSHW_1
 68
SCVTCI
PUSHW_2
 8
 3
SDS
SDB
ENDF
PUSHW_1
 1
FDEF
DUP
DUP
RCVT
ROUND[Black]
WCVTP
PUSHB_1
 1
ADD
ENDF
PUSHW_1
 2
FDEF
PUSHW_1
 1
LOOPCALL
POP
ENDF
PUSHW_1
 3
FDEF
DUP

StartChar: exclam
Encoding: 33 33 4
Width: 310
GlyphClass: 2
Flags: W
LayerCount: 2
Fore
SplineSet
72 729 m 1,0,-1
 247 729 l 1,1,-1
 247 182 l 1,2,-1
 83 182 l 1,3,-1
 72 729 l 1,0,-1
83 0 m 1,4,-1
 83 153 l 1,5,-1
 236 153 l 1,6,-1
 236 0 l 1,7,-1
 83 0 l 1,4,-1
EndSplineSet
Validated: 1
EndChar

StartChar: quotedbl
Encoding: 34 34 5
Width: 512
GlyphClass: 2
Flags: W
LayerCount: 2
Fore
SplineSet
73 516 m 1,0,-1
 73 728 l 1,1,-1
 225 728 l 1,2,-1
 225 516 l 1,3,-1
 73 516 l 1,0,-1
270 516 m 1,4,-1
 270 728 l 1,5,-1
 438 729 l 1,6,-1
 438 516 l 1,7,-1
 270 516 l 1,4,-1
EndSplineSet
Validated: 1
EndChar

StartChar: numbersign
Encoding: 35 35 6
Width: 733
GlyphClass: 2
Flags: W
LayerCount: 2
Fore
SplineSet
73 187 m 1,0,-1
 73 306 l 1,1,-1
 176 306 l 1,2,-1
 194 423 l 1,3,-1
 102 423 l 1,4,-1
 102 542 l 1,5,-1
 206 542 l 1,6,-1
 238 729 l 1,7,-1
 400 729 l 1,8,-1
 369 542 l 1,9,-1
 437 542 l 1,10,-1
 469 729 l 1,11,-1
 601 729 l 1,12,-1
 569 542 l 1,13,-1
 660 542 l 1,14,-1
 660 423 l 1,15,-1
 556 423 l 1,16,-1
 539 306 l 1,17,-1
 631 306 l 1,18,-1
 631 187 l 1,19,-1
 526 187 l 1,20,-1
 496 0 l 1,21,-1
 365 0 l 1,22,-1
 395 187 l 1,23,-1
 308 187 l 1,24,-1
 264 0 l 1,25,-1
 133 0 l 1,26,-1
 164 187 l 1,27,-1
 73 187 l 1,0,-1
327 306 m 1,28,-1
 408 306 l 1,29,-1
 425 423 l 1,30,-1
 351 423 l 1,31,-1
 327 306 l 1,28,-1
EndSplineSet
Validated: 1
EndChar

StartChar: dollar
Encoding: 36 36 7
Width: 936
GlyphClass: 2
Flags: W
LayerCount: 2
Fore
SplineSet
70 218 m 2,0,-1
 70 233 l 1,1,-1
 249 233 l 1,2,-1
 249 218 l 2,3,4
 249 207 249 207 254 197 c 0,5,6
 260 186 260 186 268 178 c 0,7,8
 277 170 277 170 289 165 c 0,9,10
 300 161 300 161 310 160 c 2,11,-1
 388 161 l 1,12,-1
 388 275 l 1,13,-1
 310 275 l 2,14,15
 257 275 257 275 212 294 c 128,-1,16
 167 313 167 313 136 345 c 0,17,18
 104 378 104 378 87 420 c 128,-1,19
 70 462 70 462 70 510 c 0,20,21
 70 561 70 561 88 603 c 0,22,23
 107 646 107 646 138 677 c 0,24,25
 171 709 171 709 214 726 c 0,26,27
 260 743 260 743 310 744 c 2,28,-1
 388 744 l 1,29,-1
 388 848 l 1,30,-1
 545 848 l 1,31,-1
 545 744 l 1,32,-1
 624 744 l 2,33,34
 673 744 673 744 717 727 c 0,35,36
 761 709 761 709 794 678 c 0,37,38
 827 646 827 646 845 604 c 0,39,40
 864 560 864 560 864 510 c 2,41,-1
 864 495 l 1,42,-1
 684 495 l 1,43,-1
 684 510 l 2,44,45
 684 523 684 523 678 535 c 0,46,47
 672 546 672 546 664 553 c 0,48,49
 654 561 654 561 643 566 c 0,50,51
 632 570 632 570 624 570 c 2,52,-1
 545 570 l 1,53,-1
 545 453 l 1,54,-1
 624 453 l 2,55,56
 674 453 674 453 719 434 c 0,57,58
 763 416 763 416 795 385 c 0,59,60
 827 353 827 353 845 311 c 0,61,62
 864 267 864 267 864 218 c 0,63,64
 864 166 864 166 845 124 c 0,65,66
 826 81 826 81 794 50 c 0,67,68
 761 18 761 18 718 1 c 0,69,70
 673 -16 673 -16 624 -16 c 2,71,-1
 545 -16 l 1,72,-1
 545 -111 l 1,73,-1
 388 -111 l 1,74,-1
 388 -16 l 1,75,-1
 310 -16 l 2,76,77
 258 -16 258 -16 213 2 c 0,78,79
 169 20 169 20 137 51 c 0,80,81
 105 84 105 84 88 126 c 0,82,83
 71 169 71 169 70 218 c 2,0,-1
249 510 m 0,84,85
 249 498 249 498 254 488 c 0,86,87
 260 478 260 478 267 472 c 2,88,-1
 269 471 l 1,89,-1
 270 469 l 2,90,91
 277 462 277 462 287 458 c 0,92,93
 298 454 298 454 310 453 c 2,94,-1
 388 453 l 1,95,-1
 388 570 l 1,96,-1
 310 570 l 2,97,98
 298 570 298 570 289 565 c 0,99,100
 277 559 277 559 268 551 c 0,101,102
 259 542 259 542 254 531 c 128,-1,103
 249 520 249 520 249 510 c 0,84,85
545 160 m 1,104,-1
 624 160 l 2,105,106
 634 161 634 161 644 165 c 0,107,108
 656 171 656 171 667 179 c 0,109,110
 674 186 674 186 679 196 c 128,-1,111
 684 206 684 206 684 218 c 0,112,113
 683 244 683 244 666 259 c 1,114,115
 646 274 646 274 624 275 c 2,116,-1
 545 275 l 1,117,-1
 545 160 l 1,104,-1
EndSplineSet
Validated: 1
EndChar

StartChar: percent
Encoding: 37 37 8
Width: 1126
GlyphClass: 2
Flags: W
LayerCount: 2
Fore
SplineSet
70 545 m 0,0,1
 70 589 70 589 87 627 c 128,-1,2
 104 665 104 665 133 692 c 0,3,4
 163 721 163 721 202 737 c 0,5,6
 244 753 244 753 290 754 c 0,7,8
 337 754 337 754 378 737 c 0,9,10
 420 720 420 720 451 692 c 128,-1,11
 482 664 482 664 499 627 c 0,12,13
 516 589 516 589 516 545 c 0,14,15
 516 500 516 500 499 463 c 0,16,17
 482 425 482 425 451 396 c 0,18,19
 419 367 419 367 379 352 c 0,20,21
 337 337 337 337 291 336 c 2,22,-1
 290 336 l 2,23,24
 243 336 243 336 202 352 c 0,25,26
 162 368 162 368 133 396 c 0,27,28
 103 425 103 425 87 463 c 0,29,30
 70 502 70 502 70 545 c 0,0,1
219 538 m 0,31,32
 220 510 220 510 240 489 c 1,33,34
 260 469 260 469 290 469 c 0,35,36
 314 470 314 470 330 480 c 0,37,38
 347 492 347 492 356 511 c 0,39,40
 361 521 361 521 361 538 c 0,41,42
 361 551 361 551 355 562 c 0,43,44
 349 574 349 574 340 585 c 0,45,46
 330 594 330 594 317 600 c 0,47,48
 304 605 304 605 290 605 c 128,-1,49
 276 605 276 605 264 600 c 0,50,51
 251 594 251 594 241 585 c 0,52,53
 231 575 231 575 224 563 c 0,54,55
 219 551 219 551 219 538 c 0,31,32
268 -16 m 1,56,-1
 748 748 l 1,57,-1
 855 748 l 1,58,-1
 377 -16 l 1,59,-1
 268 -16 l 1,56,-1
608 193 m 0,60,61
 608 238 608 238 626 278 c 128,-1,62
 644 318 644 318 675 346 c 0,63,64
 707 376 707 376 748 392 c 0,65,66
 790 409 790 409 835 410 c 0,67,68
 883 408 883 408 924 392 c 0,69,70
 963 375 963 375 992 346 c 0,71,72
 1022 316 1022 316 1038 279 c 0,73,74
 1055 239 1055 239 1056 193 c 0,75,76
 1056 148 1056 148 1038 108 c 0,77,78
 1021 68 1021 68 992 39 c 0,79,80
 962 9 962 9 924 -7 c 0,81,82
 882 -24 882 -24 835 -25 c 0,83,84
 789 -25 789 -25 748 -7 c 0,85,86
 706 10 706 10 675 39 c 0,87,88
 644 69 644 69 626 108 c 0,89,90
 609 148 609 148 608 193 c 0,60,61
763 177 m 1,91,92
 764 165 764 165 769 153 c 128,-1,93
 774 141 774 141 782 131 c 0,94,95
 792 121 792 121 805 115 c 128,-1,96
 818 109 818 109 835 109 c 0,97,98
 857 110 857 110 872 120 c 0,99,100
 888 132 888 132 901 151 c 1,101,102
 906 164 906 164 906 177 c 0,103,104
 905 206 905 206 885 225 c 0,105,106
 865 245 865 245 835 246 c 0,107,108
 805 245 805 245 785 226 c 1,109,110
 766 206 766 206 763 177 c 1,91,92
EndSplineSet
Validated: 1
EndChar

StartChar: ampersand
Encoding: 38 38 9
Width: 1126
GlyphClass: 2
Flags: W
LayerCount: 2
Fore
SplineSet
72 225 m 0,0,1
 73 305 73 305 123 365 c 1,2,3
 100 392 100 392 87 423 c 0,4,5
 72 462 72 462 72 506 c 0,6,7
 72 552 72 552 90 593 c 128,-1,8
 108 634 108 634 139 664 c 0,9,10
 172 695 172 695 215 713 c 0,11,12
 260 730 260 730 312 730 c 2,13,-1
 390 730 l 2,14,15
 440 730 440 730 483 712 c 0,16,17
 527 694 527 694 561 663 c 0,18,19
 595 630 595 630 614 588 c 0,20,21
 633 544 633 544 635 497 c 2,22,-1
 635 481 l 1,23,-1
 449 481 l 1,24,-1
 449 497 l 2,25,26
 448 524 448 524 430 538 c 0,27,28
 410 553 410 553 390 553 c 2,29,-1
 312 553 l 2,30,31
 284 552 284 552 268 540 c 1,32,33
 252 526 252 526 251 504 c 1,34,35
 252 480 252 480 268 468 c 1,36,37
 286 455 286 455 312 455 c 2,38,-1
 481 455 l 1,39,-1
 481 276 l 1,40,-1
 312 276 l 2,41,42
 297 276 297 276 286 272 c 0,43,44
 275 267 275 267 266 260 c 0,45,46
 258 252 258 252 255 244 c 0,47,48
 251 235 251 235 251 226 c 0,49,50
 252 203 252 203 269 189 c 0,51,52
 287 175 287 175 312 175 c 2,53,-1
 618 175 l 2,54,55
 628 175 628 175 639 179 c 0,56,57
 649 183 649 183 657 190 c 0,58,59
 666 199 666 199 673 209 c 0,60,61
 678 219 678 219 678 231 c 2,62,-1
 678 659 l 1,63,-1
 864 659 l 1,64,-1
 864 455 l 1,65,-1
 1055 455 l 1,66,-1
 1055 278 l 1,67,-1
 863 278 l 1,68,-1
 863 226 l 2,69,70
 864 209 864 209 880 193 c 1,71,72
 896 179 896 179 923 177 c 2,73,-1
 938 177 l 1,74,-1
 938 -1 l 1,75,-1
 923 -1 l 2,76,77
 877 -1 877 -1 835 16 c 0,78,79
 800 30 800 30 770 52 c 1,80,81
 739 29 739 29 706 16 c 0,82,83
 664 1 664 1 618 0 c 2,84,-1
 312 0 l 2,85,86
 262 0 262 0 217 17 c 0,87,88
 173 34 173 34 140 65 c 0,89,90
 108 96 108 96 90 136 c 0,91,92
 72 178 72 178 72 225 c 0,0,1
EndSplineSet
Validated: 1
EndChar

StartChar: quotesingle
Encoding: 39 39 10
Width: 296
GlyphClass: 2
Flags: W
LayerCount: 2
Fore
SplineSet
73 538 m 1,0,-1
 73 729 l 1,1,-1
 225 729 l 1,2,-1
 225 603 l 1,3,-1
 73 538 l 1,0,-1
EndSplineSet
Validated: 1
EndChar

StartChar: parenleft
Encoding: 40 40 11
Width: 501
GlyphClass: 2
Flags: W
LayerCount: 2
Fore
SplineSet
72 335 m 0,0,1
 72 390 72 390 85 452 c 0,2,3
 98 511 98 511 124 567 c 0,4,5
 151 626 151 626 187 679 c 0,6,7
 236 731 236 731 301 768 c 2,8,-1
 306 768 l 1,9,-1
 444 768 l 1,10,-1
 423 749 l 2,11,12
 379 698 379 698 352 642 c 0,13,14
 324 587 324 587 304 534 c 0,15,16
 284 477 284 477 275 425 c 0,17,18
 267 373 267 373 267 335 c 128,-1,19
 267 297 267 297 276 247 c 0,20,21
 285 196 285 196 306 138 c 0,22,23
 326 84 326 84 353 29 c 0,24,25
 381 -28 381 -28 424 -80 c 2,26,-1
 443 -99 l 1,27,-1
 306 -99 l 1,28,-1
 301 -99 l 2,29,30
 233 -60 233 -60 186 -9 c 0,31,32
 148 43 148 43 123 100 c 0,33,34
 97 157 97 157 85 216 c 0,35,36
 72 278 72 278 72 335 c 0,0,1
EndSplineSet
Validated: 1
EndChar

StartChar: parenright
Encoding: 41 41 12
Width: 501
GlyphClass: 2
Flags: W
LayerCount: 2
Fore
SplineSet
72 767 m 1,0,-1
 211 767 l 1,1,-1
 217 767 l 2,2,3
 284 729 284 729 331 678 c 0,4,5
 369 625 369 625 393 566 c 0,6,7
 419 509 419 509 432 451 c 0,8,9
 444 393 444 393 444 342 c 0,10,11
 444 338 444 338 444 334 c 0,12,13
 444 278 444 278 432 216 c 0,14,15
 419 157 419 157 393 100 c 0,16,17
 367 42 367 42 331 -10 c 0,18,19
 283 -62 283 -62 217 -100 c 2,20,-1
 212 -100 l 1,21,-1
 73 -100 l 1,22,-1
 93 -81 l 2,23,24
 136 -29 136 -29 163 28 c 0,25,26
 191 84 191 84 211 137 c 0,27,28
 233 194 233 194 241 246 c 0,29,30
 249 297 249 297 249 334 c 0,31,32
 249 373 249 373 241 424 c 0,33,34
 233 476 233 476 213 532 c 0,35,36
 193 586 193 586 165 641 c 0,37,38
 136 697 136 697 93 748 c 2,39,-1
 72 767 l 1,0,-1
EndSplineSet
Validated: 1
EndChar

StartChar: asterisk
Encoding: 42 42 13
Width: 587
GlyphClass: 2
Flags: W
LayerCount: 2
Fore
SplineSet
80 505 m 1,0,-1
 182 544 l 1,1,-1
 80 581 l 1,2,-1
 148 690 l 1,3,-1
 241 629 l 1,4,-1
 222 729 l 1,5,-1
 385 729 l 1,6,-1
 368 630 l 1,7,-1
 460 692 l 1,8,-1
 527 581 l 1,9,-1
 427 544 l 1,10,-1
 528 505 l 1,11,-1
 460 396 l 1,12,-1
 368 458 l 1,13,-1
 385 357 l 1,14,-1
 224 357 l 1,15,-1
 241 458 l 1,16,-1
 148 395 l 1,17,-1
 80 505 l 1,0,-1
EndSplineSet
Validated: 1
EndChar

StartChar: plus
Encoding: 43 43 14
Width: 696
GlyphClass: 2
Flags: W
LayerCount: 2
Fore
SplineSet
72 254 m 1,0,-1
 72 387 l 1,1,-1
 275 387 l 1,2,-1
 275 567 l 1,3,-1
 423 567 l 1,4,-1
 423 387 l 1,5,-1
 627 387 l 1,6,-1
 627 254 l 1,7,-1
 424 254 l 1,8,-1
 424 74 l 1,9,-1
 276 74 l 1,10,-1
 276 254 l 1,11,-1
 72 254 l 1,0,-1
EndSplineSet
Validated: 1
EndChar

StartChar: comma
Encoding: 44 44 15
Width: 258
GlyphClass: 2
Flags: W
LayerCount: 2
Fore
SplineSet
72 -70 m 1,0,-1
 72 122 l 1,1,-1
 224 122 l 1,2,-1
 224 -5 l 1,3,-1
 72 -70 l 1,0,-1
EndSplineSet
Validated: 1
EndChar

StartChar: hyphen
Encoding: 45 45 16
Width: 690
GlyphClass: 2
Flags: W
LayerCount: 2
Fore
SplineSet
72 231 m 1,0,-1
 72 384 l 1,1,-1
 620 384 l 1,2,-1
 620 231 l 1,3,-1
 72 231 l 1,0,-1
EndSplineSet
Validated: 1
EndChar

StartChar: period
Encoding: 46 46 17
Width: 293
GlyphClass: 2
Flags: W
LayerCount: 2
Fore
SplineSet
72 -31 m 1,0,-1
 72 122 l 1,1,-1
 224 122 l 1,2,-1
 224 -31 l 1,3,-1
 72 -31 l 1,0,-1
EndSplineSet
Validated: 1
EndChar

StartChar: slash
Encoding: 47 47 18
Width: 667
GlyphClass: 2
Flags: W
LayerCount: 2
Fore
SplineSet
9 -17 m 1,0,-1
 484 746 l 1,1,-1
 680 746 l 1,2,-1
 206 -17 l 1,3,-1
 9 -17 l 1,0,-1
EndSplineSet
Validated: 1
EndChar

StartChar: one
Encoding: 49 49 20
Width: 376
GlyphClass: 2
Flags: W
LayerCount: 2
Fore
SplineSet
27 386 m 1,0,-1
 27 625 l 1,1,-1
 139 729 l 1,2,-1
 306 729 l 1,3,-1
 306 0 l 1,4,-1
 130 0 l 1,5,-1
 130 481 l 1,6,-1
 27 386 l 1,0,-1
EndSplineSet
Validated: 1
EndChar

StartChar: two
Encoding: 50 50 21
Width: 920
GlyphClass: 2
Flags: W
LayerCount: 2
Fore
SplineSet
65 0 m 1,0,-1
 65 160 l 1,1,-1
 653 509 l 2,2,3
 664 516 664 516 672 522 c 1,4,5
 675 526 675 526 675 532 c 0,6,7
 674 541 674 541 668 547 c 0,8,9
 661 552 661 552 653 553 c 2,10,-1
 266 553 l 2,11,12
 257 552 257 552 251 546 c 0,13,14
 244 539 244 539 244 531 c 2,15,-1
 244 516 l 1,16,-1
 65 516 l 1,17,-1
 65 531 l 2,18,19
 65 574 65 574 81 610 c 128,-1,20
 97 646 97 646 125 673 c 0,21,22
 154 700 154 700 187 714 c 0,23,24
 225 728 225 728 266 729 c 2,25,-1
 653 729 l 2,26,27
 694 729 694 729 731 714 c 0,28,29
 768 700 768 700 795 675 c 0,30,31
 823 649 823 649 839 615 c 0,32,33
 855 580 855 580 855 542 c 0,34,35
 854 492 854 492 829 452 c 0,36,37
 803 412 803 412 763 386 c 2,38,-1
 407 176 l 1,39,-1
 855 176 l 1,40,-1
 855 0 l 1,41,-1
 65 0 l 1,0,-1
EndSplineSet
Validated: 1
EndChar

StartChar: three
Encoding: 51 51 22
Width: 910
GlyphClass: 2
Flags: W
LayerCount: 2
Fore
SplineSet
54 234 m 2,0,-1
 54 250 l 1,1,-1
 236 250 l 1,2,-1
 236 234 l 2,3,4
 236 220 236 220 241 211 c 0,5,6
 247 200 247 200 256 191 c 0,7,8
 265 183 265 183 274 179 c 0,9,10
 285 175 285 175 295 175 c 2,11,-1
 606 175 l 2,12,13
 632 176 632 176 650 189 c 1,14,15
 667 204 667 204 669 226 c 0,16,17
 669 235 669 235 665 244 c 128,-1,18
 661 253 661 253 653 260 c 128,-1,19
 645 267 645 267 634 272 c 0,20,21
 622 276 622 276 606 276 c 2,22,-1
 435 276 l 1,23,-1
 435 455 l 1,24,-1
 606 455 l 2,25,26
 634 456 634 456 651 468 c 1,27,28
 667 481 667 481 669 504 c 1,29,30
 668 526 668 526 651 539 c 0,31,32
 634 553 634 553 606 553 c 2,33,-1
 295 553 l 2,34,35
 273 552 273 552 254 538 c 1,36,37
 236 523 236 523 236 497 c 2,38,-1
 236 481 l 1,39,-1
 54 481 l 1,40,-1
 54 497 l 2,41,42
 54 546 54 546 74 588 c 0,43,44
 93 631 93 631 125 663 c 0,45,46
 158 695 158 695 201 712 c 0,47,48
 246 730 246 730 295 730 c 2,49,-1
 606 730 l 2,50,51
 658 730 658 730 705 713 c 0,52,53
 750 695 750 695 781 664 c 0,54,55
 813 633 813 633 830 593 c 0,56,57
 847 551 847 551 849 506 c 0,58,59
 849 462 849 462 834 423 c 0,60,61
 821 391 821 391 798 365 c 1,62,63
 849 305 849 305 849 225 c 0,64,65
 849 177 849 177 830 136 c 0,66,67
 811 94 811 94 779 65 c 0,68,69
 746 35 746 35 703 17 c 0,70,71
 657 0 657 0 606 0 c 2,72,-1
 295 0 l 2,73,74
 247 0 247 0 203 17 c 0,75,76
 159 35 159 35 127 67 c 0,77,78
 94 99 94 99 74 140 c 0,79,80
 55 184 55 184 54 234 c 2,0,-1
EndSplineSet
Validated: 1
EndChar

StartChar: four
Encoding: 52 52 23
Width: 860
GlyphClass: 2
Flags: W
LayerCount: 2
Fore
SplineSet
16 59 m 1,0,-1
 16 224 l 1,1,-1
 558 730 l 1,2,-1
 733 730 l 1,3,-1
 733 237 l 1,4,-1
 805 237 l 1,5,-1
 805 59 l 1,6,-1
 733 59 l 1,7,-1
 733 0 l 1,8,-1
 556 0 l 1,9,-1
 556 59 l 1,10,-1
 16 59 l 1,0,-1
285 237 m 1,11,-1
 556 237 l 1,12,-1
 549 488 l 1,13,-1
 285 237 l 1,11,-1
EndSplineSet
Validated: 1
EndChar

StartChar: five
Encoding: 53 53 24
Width: 943
GlyphClass: 2
Flags: W
LayerCount: 2
Fore
SplineSet
62 267 m 2,0,-1
 62 283 l 1,1,-1
 250 283 l 1,2,-1
 250 267 l 2,3,4
 250 248 250 248 258 231 c 0,5,6
 267 215 267 215 282 203 c 0,7,8
 298 191 298 191 318 183 c 0,9,10
 338 176 338 176 360 176 c 2,11,-1
 580 176 l 2,12,13
 605 176 605 176 625 182 c 0,14,15
 645 189 645 189 660 201 c 128,-1,16
 675 213 675 213 684 227 c 0,17,18
 692 242 692 242 692 260 c 0,19,20
 692 282 692 282 682 298 c 0,21,22
 671 315 671 315 655 326 c 128,-1,23
 639 337 639 337 620 342 c 0,24,25
 598 347 598 347 580 348 c 2,26,-1
 142 348 l 1,27,-1
 62 425 l 1,28,-1
 62 726 l 1,29,-1
 850 726 l 1,30,-1
 850 550 l 1,31,-1
 242 550 l 1,32,-1
 242 524 l 1,33,-1
 570 524 l 2,34,35
 629 524 629 524 681 504 c 0,36,37
 732 484 732 484 770 449 c 0,38,39
 807 413 807 413 828 366 c 0,40,41
 880 317 880 317 881 260 c 0,42,43
 881 206 881 206 859 159 c 128,-1,44
 837 112 837 112 802 77 c 0,45,46
 765 41 765 41 709 20 c 0,47,48
 649 0 649 0 582 0 c 2,49,-1
 360 0 l 2,50,51
 289 0 289 0 231 22 c 0,52,53
 174 45 174 45 138 80 c 0,54,55
 102 117 102 117 83 165 c 0,56,57
 64 214 64 214 62 267 c 2,0,-1
EndSplineSet
Validated: 1
EndChar

StartChar: six
Encoding: 54 54 25
Width: 914
GlyphClass: 2
Flags: W
LayerCount: 2
Fore
SplineSet
65 227 m 2,0,-1
 65 506 l 2,1,2
 65 553 65 553 83 593 c 0,3,4
 101 634 101 634 132 665 c 0,5,6
 165 696 165 696 208 713 c 0,7,8
 254 730 254 730 304 730 c 2,9,-1
 614 730 l 2,10,11
 665 730 665 730 712 712 c 0,12,13
 756 693 756 693 787 662 c 0,14,15
 819 629 819 629 838 588 c 0,16,17
 856 545 856 545 856 497 c 2,18,-1
 856 481 l 1,19,-1
 675 481 l 1,20,-1
 675 497 l 2,21,22
 674 525 674 525 656 538 c 0,23,24
 636 552 636 552 614 553 c 2,25,-1
 304 553 l 2,26,27
 278 552 278 552 262 540 c 1,28,29
 246 525 246 525 245 504 c 2,30,-1
 245 447 l 1,31,32
 254 449 254 449 262 452 c 0,33,34
 282 456 282 456 304 456 c 2,35,-1
 614 456 l 2,36,37
 667 456 667 456 713 437 c 0,38,39
 757 419 757 419 788 387 c 0,40,41
 820 354 820 354 838 314 c 0,42,43
 856 272 856 272 856 228 c 0,44,45
 856 180 856 180 838 139 c 0,46,47
 819 98 819 98 787 68 c 0,48,49
 754 36 754 36 712 18 c 0,50,51
 666 1 666 1 614 0 c 2,52,-1
 304 0 l 2,53,54
 253 0 253 0 208 18 c 0,55,56
 164 36 164 36 132 67 c 0,57,58
 100 99 100 99 83 138 c 0,59,60
 66 180 66 180 65 227 c 2,0,-1
245 228 m 1,61,62
 246 208 246 208 262 193 c 1,63,64
 279 179 279 179 304 178 c 2,65,-1
 614 178 l 2,66,67
 640 179 640 179 657 193 c 1,68,69
 673 207 673 207 675 228 c 1,70,71
 674 247 674 247 657 263 c 1,72,73
 639 277 639 277 614 278 c 2,74,-1
 304 278 l 2,75,76
 275 277 275 277 261 263 c 1,77,78
 245 247 245 247 245 228 c 1,61,62
EndSplineSet
Validated: 1
EndChar

StartChar: seven
Encoding: 55 55 26
Width: 870
GlyphClass: 2
Flags: W
LayerCount: 2
Fore
SplineSet
63 0 m 1,0,-1
 621 551 l 1,1,-1
 83 551 l 1,2,-1
 83 729 l 1,3,-1
 873 729 l 1,4,-1
 873 567 l 1,5,-1
 309 0 l 1,6,-1
 63 0 l 1,0,-1
EndSplineSet
Validated: 1
EndChar

StartChar: eight
Encoding: 56 56 27
Width: 905
GlyphClass: 2
Flags: W
LayerCount: 2
Fore
SplineSet
56 225 m 0,0,1
 56 273 56 273 75 312 c 0,2,3
 94 352 94 352 124 383 c 2,4,-1
 125 384 l 1,5,-1
 126 385 l 2,6,7
 137 393 137 393 146 400 c 0,8,9
 148 402 148 402 152 403 c 1,10,11
 123 431 123 431 108 466 c 128,-1,12
 93 501 93 501 92 540 c 0,13,14
 92 579 92 579 108 612 c 0,15,16
 124 647 124 647 150 673 c 0,17,18
 178 700 178 700 215 714 c 0,19,20
 254 728 254 728 296 729 c 2,21,-1
 605 729 l 2,22,23
 649 729 649 729 687 714 c 0,24,25
 726 699 726 699 753 673 c 0,26,27
 780 646 780 646 795 612 c 0,28,29
 810 577 810 577 810 540 c 0,30,31
 810 495 810 495 791 459 c 0,32,33
 776 431 776 431 753 407 c 1,34,35
 758 403 758 403 760 400 c 0,36,37
 769 392 769 392 779 385 c 2,38,-1
 780 384 l 1,39,-1
 781 383 l 2,40,41
 812 351 812 351 830 312 c 0,42,43
 848 271 848 271 849 225 c 0,44,45
 849 176 849 176 829 135 c 0,46,47
 810 94 810 94 779 65 c 0,48,49
 746 35 746 35 703 17 c 0,50,51
 657 0 657 0 609 0 c 2,52,-1
 296 0 l 2,53,54
 247 0 247 0 203 16 c 0,55,56
 159 33 159 33 127 63 c 0,57,58
 94 94 94 94 76 135 c 0,59,60
 57 177 57 177 56 225 c 0,0,1
237 226 m 0,61,62
 237 215 237 215 242 206 c 0,63,64
 248 196 248 196 257 189 c 128,-1,65
 266 182 266 182 276.5 178.5 c 128,-1,66
 287 175 287 175 296 175 c 2,67,-1
 609 175 l 2,68,69
 635 175 635 175 651 190 c 0,70,-1
 651 191 l 2,71,72
 667 205 667 205 669 226 c 0,73,74
 669 234 669 234 665 243 c 128,-1,75
 661 252 661 252 653 260 c 0,76,77
 645 267 645 267 635 271.5 c 128,-1,78
 625 276 625 276 609 276 c 2,79,-1
 296 276 l 2,80,81
 271 275 271 275 254 261 c 1,82,83
 237 245 237 245 237 226 c 0,61,62
274 539 m 0,84,85
 275 533 275 533 281 529 c 1,86,87
 288 526 288 526 296 525 c 2,88,-1
 605 525 l 2,89,90
 616 525 616 525 623 528 c 1,91,92
 628 532 628 532 629 539 c 1,93,94
 628 544 628 544 623 547 c 0,95,96
 615 550 615 550 605 551 c 2,97,-1
 296 551 l 2,98,99
 290 551 290 551 287 550 c 1,100,101
 285 549 285 549 284 549 c 2,102,-1
 282 547 l 1,103,-1
 280 546 l 1,104,-1
 275 544 l 1,105,106
 274 541 274 541 274 539 c 0,84,85
EndSplineSet
Validated: 1
EndChar

StartChar: nine
Encoding: 57 57 28
Width: 912
GlyphClass: 2
Flags: W
LayerCount: 2
Fore
SplineSet
58 234 m 2,0,-1
 58 250 l 1,1,-1
 239 250 l 1,2,-1
 239 234 l 2,3,4
 240 209 240 209 256 195 c 1,5,6
 274 180 274 180 298 178 c 2,7,-1
 607 178 l 2,8,9
 633 179 633 179 652 193 c 1,10,11
 670 208 670 208 671 227 c 2,12,-1
 671 284 l 1,13,14
 638 277 638 277 607 276 c 2,15,-1
 298 276 l 2,16,17
 247 276 247 276 203 294 c 128,-1,18
 159 312 159 312 127 342 c 0,19,20
 95 374 95 374 77 414 c 0,21,22
 59 456 59 456 58 503 c 0,23,24
 58 551 58 551 77 591 c 0,25,26
 95 633 95 633 126 664 c 0,27,28
 158 695 158 695 201 712 c 0,29,30
 247 729 247 729 298 729 c 2,31,-1
 607 729 l 2,32,33
 661 729 661 729 705 713 c 0,34,35
 749 696 749 696 780 666 c 1,36,37
 813 632 813 632 830 592 c 0,38,39
 847 550 847 550 849 504 c 2,40,-1
 849 225 l 2,41,42
 849 180 849 180 830 139 c 0,43,44
 812 98 812 98 781 68 c 0,45,46
 749 37 749 37 706 18 c 0,47,48
 659 0 659 0 607 0 c 2,49,-1
 298 0 l 2,50,51
 247 0 247 0 203 18 c 0,52,53
 159 37 159 37 127 70 c 128,-1,54
 95 103 95 103 77 143 c 0,55,56
 59 186 59 186 58 234 c 2,0,-1
239 503 m 1,57,58
 240 485 240 485 255 468 c 1,59,60
 271 454 271 454 298 453 c 2,61,-1
 607 453 l 2,62,63
 621 453 621 453 631 457 c 0,64,65
 642 462 642 462 651 467 c 1,66,67
 670 484 670 484 671 503 c 1,68,69
 670 523 670 523 651 539 c 1,70,71
 632 554 632 554 607 554 c 2,72,-1
 298 554 l 2,73,74
 273 553 273 553 257 539 c 1,75,76
 240 523 240 523 239 503 c 1,57,58
EndSplineSet
Validated: 1
EndChar

StartChar: colon
Encoding: 58 58 29
Width: 293
GlyphClass: 2
Flags: W
LayerCount: 2
Fore
SplineSet
72 0 m 1,0,-1
 72 153 l 1,1,-1
 224 153 l 1,2,-1
 224 0 l 1,3,-1
 72 0 l 1,0,-1
72 232 m 1,4,-1
 72 385 l 1,5,-1
 224 385 l 1,6,-1
 224 232 l 1,7,-1
 72 232 l 1,4,-1
EndSplineSet
Validated: 1
EndChar

StartChar: semicolon
Encoding: 59 59 30
Width: 269
GlyphClass: 2
Flags: W
LayerCount: 2
Fore
SplineSet
72 -70 m 1,0,-1
 72 153 l 1,1,-1
 224 153 l 1,2,-1
 224 6 l 1,3,-1
 72 -70 l 1,0,-1
72 232 m 1,4,-1
 72 385 l 1,5,-1
 224 385 l 1,6,-1
 224 232 l 1,7,-1
 72 232 l 1,4,-1
EndSplineSet
Validated: 1
EndChar

StartChar: less
Encoding: 60 60 31
Width: 686
GlyphClass: 2
Flags: W
LayerCount: 2
Fore
SplineSet
72 299 m 1,0,-1
 72 421 l 1,1,-1
 615 703 l 1,2,-1
 615 562 l 1,3,-1
 210 359 l 1,4,-1
 615 157 l 1,5,-1
 615 16 l 1,6,-1
 72 299 l 1,0,-1
EndSplineSet
Validated: 1
EndChar

StartChar: equal
Encoding: 61 61 32
Width: 698
GlyphClass: 2
Flags: W
LayerCount: 2
Fore
SplineSet
72 167 m 1,0,-1
 72 300 l 1,1,-1
 627 300 l 1,2,-1
 627 167 l 1,3,-1
 72 167 l 1,0,-1
72 341 m 1,4,-1
 72 474 l 1,5,-1
 627 474 l 1,6,-1
 627 341 l 1,7,-1
 72 341 l 1,4,-1
EndSplineSet
Validated: 1
EndChar

StartChar: greater
Encoding: 62 62 33
Width: 686
GlyphClass: 2
Flags: W
LayerCount: 2
Fore
SplineSet
72 15 m 1,0,-1
 72 156 l 1,1,-1
 477 358 l 1,2,-1
 72 561 l 1,3,-1
 72 702 l 1,4,-1
 615 420 l 1,5,-1
 615 298 l 1,6,-1
 72 15 l 1,0,-1
EndSplineSet
Validated: 1
EndChar

StartChar: question
Encoding: 63 63 34
Width: 911
GlyphClass: 2
Flags: W
LayerCount: 2
Fore
SplineSet
73 479 m 1,0,-1
 73 495 l 2,1,2
 73 544 73 544 91 587 c 128,-1,3
 109 630 109 630 140 662 c 0,4,5
 173 694 173 694 216 711 c 0,6,7
 262 728 262 728 313 729 c 2,8,-1
 626 729 l 2,9,10
 678 729 678 729 723 711 c 0,11,12
 767 693 767 693 799 662 c 1,13,14
 830 629 830 629 848 587 c 0,15,16
 866 544 866 544 866 495 c 0,17,18
 866 447 866 447 848 404 c 0,19,20
 851 392 851 392 852 381 c 0,21,22
 852 352 852 352 829 330 c 0,23,24
 796 297 796 297 752 279 c 0,25,26
 701 261 701 261 642 260 c 0,27,28
 627 260 627 260 615 255 c 0,29,30
 602 249 602 249 594 242 c 0,31,32
 585 233 585 233 581 223 c 128,-1,33
 577 213 577 213 577 204 c 2,34,-1
 577 114 l 1,35,-1
 397 114 l 1,36,-1
 397 204 l 2,37,38
 397 251 397 251 416 294 c 0,39,40
 434 337 434 337 449 369 c 0,41,42
 484 401 484 401 527 419 c 0,43,44
 573 438 573 438 626 438 c 0,45,46
 651 439 651 439 668 454 c 1,47,48
 685 470 685 470 685 495 c 1,49,50
 684 523 684 523 668 537 c 1,51,52
 649 552 649 552 626 552 c 2,53,-1
 313 552 l 2,54,55
 289 551 289 551 271 537 c 1,56,57
 254 522 254 522 254 495 c 2,58,-1
 254 479 l 1,59,-1
 73 479 l 1,0,-1
394 0 m 1,60,-1
 394 75 l 1,61,-1
 572 75 l 1,62,-1
 572 0 l 1,63,-1
 394 0 l 1,60,-1
EndSplineSet
Validated: 1
EndChar

StartChar: at
Encoding: 64 64 35
Width: 993
GlyphClass: 2
Flags: W
LayerCount: 2
Fore
SplineSet
72 272 m 2,0,-1
 72 465 l 2,1,2
 72 548 72 548 103 620 c 0,3,4
 136 693 136 693 191 746 c 0,5,6
 250 800 250 800 329 831 c 128,-1,7
 408 862 408 862 497 862 c 128,-1,8
 586 862 586 862 665 830 c 128,-1,9
 744 798 744 798 802 745 c 0,10,11
 858 690 858 690 890 617 c 0,12,13
 923 542 923 542 923 460 c 0,14,15
 923 381 923 381 895 313 c 0,16,17
 866 243 866 243 819 191 c 0,18,19
 768 138 768 138 699 104 c 0,20,21
 629 70 629 70 551 60 c 0,22,23
 541 58 541 58 534 58 c 0,24,25
 526 58 526 58 517 57 c 2,26,-1
 480 57 l 1,27,-1
 480 60 l 1,28,29
 447 66 447 66 421 81 c 0,30,31
 387 99 387 99 361 126 c 0,32,33
 336 155 336 155 323 189 c 0,34,35
 309 226 309 226 308 267 c 0,36,37
 308 310 308 310 325 348 c 128,-1,38
 342 386 342 386 369 415 c 0,39,40
 399 444 399 444 435 460 c 0,41,42
 474 476 474 476 517 476 c 0,43,44
 540 476 540 476 562 470 c 0,45,46
 578 466 578 466 600 458 c 1,47,-1
 600 510 l 2,48,49
 599 540 599 540 580 560 c 1,50,51
 560 579 560 579 532 581 c 1,52,53
 507 580 507 580 490 565 c 1,54,55
 472 549 472 549 466 526 c 2,56,-1
 463 514 l 1,57,-1
 339 514 l 1,58,-1
 340 530 l 2,59,60
 344 567 344 567 360 599 c 0,61,62
 377 631 377 631 402 654 c 0,63,64
 429 678 429 678 461 691 c 0,65,66
 495 704 495 704 532 705 c 0,67,68
 573 705 573 705 608 689 c 0,69,70
 644 674 644 674 670 647 c 0,71,72
 696 619 696 619 710 586 c 0,73,74
 725 550 725 550 725 510 c 2,75,-1
 725 254 l 1,76,77
 767 296 767 296 792 349 c 0,78,79
 816 404 816 404 816 468 c 0,80,81
 816 530 816 530 792 586 c 0,82,83
 766 642 766 642 723 682 c 0,84,85
 679 723 679 723 621 748 c 0,86,87
 564 771 564 771 502 771 c 0,88,89
 499 771 499 771 497 771 c 0,90,91
 429 771 429 771 372 748 c 0,92,93
 314 723 314 723 270 682 c 0,94,95
 227 640 227 640 203 586 c 0,96,97
 179 530 179 530 178 468 c 2,98,-1
 178 269 l 2,99,100
 178 206 178 206 203 151 c 0,101,102
 229 96 229 96 270 54 c 0,103,104
 313 20 313 20 372 0 c 0,105,106
 430 -19 430 -19 497 -19 c 2,107,-1
 602 -19 l 2,108,109
 671 -19 671 -19 727 4 c 0,110,111
 785 29 785 29 826 70 c 2,112,-1
 838 80 l 1,113,-1
 913 5 l 1,114,-1
 903 -6 l 2,115,116
 845 -63 845 -63 770 -94 c 0,117,118
 692 -126 692 -126 602 -126 c 2,119,-1
 497 -126 l 2,120,121
 406 -126 406 -126 328 -94 c 0,122,123
 249 -62 249 -62 190 -9 c 0,124,125
 135 46 135 46 103 118 c 0,126,127
 71 191 71 191 72 272 c 2,0,-1
433 267 m 0,128,129
 433 250 433 250 440 234 c 128,-1,130
 447 218 447 218 459 207 c 128,-1,131
 471 196 471 196 485 188 c 0,132,133
 500 182 500 182 517 181 c 0,134,135
 534 181 534 181 548 187 c 0,136,137
 563 194 563 194 574 207 c 0,138,139
 585 219 585 219 593 234 c 0,140,141
 599 250 599 250 600 267 c 0,142,143
 600 283 600 283 593 299 c 128,-1,144
 586 315 586 315 574 327 c 128,-1,145
 562 339 562 339 548 346 c 0,146,147
 533 352 533 352 517 352 c 0,148,149
 500 352 500 352 485 345 c 128,-1,150
 470 338 470 338 459 327 c 0,151,152
 447 314 447 314 440 299 c 0,153,154
 434 283 434 283 433 267 c 0,128,129
EndSplineSet
Validated: 33
EndChar

StartChar: A
Encoding: 65 65 36
Width: 857
GlyphClass: 2
Flags: W
LayerCount: 2
Fore
SplineSet
32 0 m 1,0,-1
 338 730 l 1,1,-1
 531 730 l 1,2,-1
 840 0 l 1,3,-1
 649 0 l 1,4,-1
 603 92 l 1,5,-1
 269 92 l 1,6,-1
 222 0 l 1,7,-1
 32 0 l 1,0,-1
344 271 m 1,8,-1
 528 271 l 1,9,-1
 436 489 l 1,10,-1
 344 271 l 1,8,-1
EndSplineSet
Validated: 1
EndChar

StartChar: B
Encoding: 66 66 37
Width: 922
GlyphClass: 2
Flags: W
LayerCount: 2
Fore
SplineSet
72 1 m 1,0,-1
 72 729 l 1,1,-1
 622 729 l 2,2,3
 674 729 674 729 718 712 c 0,4,5
 762 694 762 694 794 664 c 0,6,7
 825 633 825 633 843 593 c 0,8,9
 861 552 861 552 861 505 c 0,10,11
 861 461 861 461 845 423 c 0,12,13
 832 391 832 391 810 366 c 1,14,15
 833 339 833 339 845 307 c 0,16,17
 860 268 860 268 861 225 c 0,18,19
 861 177 861 177 843 137 c 0,20,21
 825 96 825 96 794 67 c 0,22,23
 761 36 761 36 718 18 c 0,24,25
 673 1 673 1 622 1 c 2,26,-1
 72 1 l 1,0,-1
249 178 m 1,27,-1
 622 178 l 2,28,29
 648 179 648 179 664 191 c 1,30,31
 680 205 680 205 681 227 c 1,32,33
 680 250 680 250 664 263 c 1,34,35
 647 276 647 276 622 276 c 2,36,-1
 249 276 l 1,37,-1
 249 178 l 1,27,-1
249 454 m 1,38,-1
 622 454 l 2,39,40
 648 455 648 455 664 467 c 1,41,42
 681 486 681 486 681 504 c 1,43,44
 680 526 680 526 663 540 c 1,45,46
 645 554 645 554 622 555 c 2,47,-1
 249 555 l 1,48,-1
 249 454 l 1,38,-1
EndSplineSet
Validated: 1
EndChar

StartChar: C
Encoding: 67 67 38
Width: 942
GlyphClass: 2
Flags: W
LayerCount: 2
Fore
SplineSet
61 259 m 2,0,-1
 61 471 l 2,1,2
 61 525 61 525 83 571 c 0,3,4
 105 618 105 618 140 654 c 0,5,6
 178 690 178 690 237 710 c 0,7,8
 297 730 297 730 366 730 c 2,9,-1
 586 730 l 2,10,11
 653 730 653 730 712 709 c 0,12,13
 770 687 770 687 807 651 c 0,14,15
 844 614 844 614 865 567 c 0,16,17
 887 519 887 519 887 463 c 2,18,-1
 887 447 l 1,19,-1
 697 447 l 1,20,-1
 697 463 l 2,21,22
 696 481 696 481 688 498 c 0,23,24
 678 515 678 515 664 527 c 0,25,26
 648 540 648 540 628 548 c 0,27,28
 609 555 609 555 586 555 c 2,29,-1
 366 555 l 2,30,31
 340 555 340 555 321 549 c 0,32,33
 301 542 301 542 285 530 c 0,34,35
 270 518 270 518 260 502 c 0,36,37
 251 486 251 486 251 467 c 2,38,-1
 251 263 l 2,39,40
 252 224 252 224 284 202 c 1,41,42
 318 178 318 178 366 178 c 2,43,-1
 586 178 l 2,44,45
 609 178 609 178 629 185 c 0,46,47
 651 192 651 192 665 205 c 0,48,49
 680 218 680 218 688 233 c 0,50,51
 697 250 697 250 697 268 c 2,52,-1
 697 284 l 1,53,-1
 887 284 l 1,54,-1
 887 268 l 2,55,56
 887 212 887 212 865 164 c 0,57,58
 842 115 842 115 807 79 c 0,59,60
 769 42 769 42 712 22 c 0,61,62
 652 0 652 0 586 0 c 2,63,-1
 366 0 l 2,64,65
 296 0 296 0 237 20 c 128,-1,66
 178 40 178 40 140 76 c 0,67,68
 103 112 103 112 83 158 c 0,69,70
 61 205 61 205 61 259 c 2,0,-1
EndSplineSet
Validated: 1
EndChar

StartChar: D
Encoding: 68 68 39
Width: 919
GlyphClass: 2
Flags: W
LayerCount: 2
Fore
SplineSet
72 0 m 1,0,-1
 72 729 l 1,1,-1
 581 729 l 2,2,3
 641 729 641 729 692 707 c 0,4,5
 743 684 743 684 779 650 c 0,6,7
 816 616 816 616 838 570 c 0,8,9
 860 523 860 523 859 468 c 2,10,-1
 859 258 l 2,11,12
 859 205 859 205 838 158 c 0,13,14
 815 111 815 111 779 76 c 0,15,16
 742 41 742 41 691 20 c 0,17,18
 639 0 639 0 581 0 c 2,19,-1
 72 0 l 1,0,-1
251 176 m 1,20,-1
 581 176 l 2,21,22
 601 176 601 176 620 183 c 0,23,24
 638 190 638 190 651 202 c 0,25,26
 665 215 665 215 673 230.5 c 128,-1,27
 681 246 681 246 681 262 c 2,28,-1
 681 464 l 2,29,30
 681 481 681 481 673 497 c 0,31,32
 664 513 664 513 650 524 c 0,33,34
 636 536 636 536 618 544 c 0,35,36
 600 551 600 551 581 551 c 2,37,-1
 251 551 l 1,38,-1
 251 176 l 1,20,-1
EndSplineSet
Validated: 33
EndChar

StartChar: E
Encoding: 69 69 40
Width: 932
GlyphClass: 2
Flags: W
LayerCount: 2
Fore
SplineSet
72 0 m 1,0,-1
 72 728 l 1,1,-1
 861 728 l 1,2,-1
 861 554 l 1,3,-1
 249 554 l 1,4,-1
 249 456 l 1,5,-1
 571 456 l 1,6,-1
 571 279 l 1,7,-1
 249 279 l 1,8,-1
 249 177 l 1,9,-1
 861 177 l 1,10,-1
 861 0 l 1,11,-1
 72 0 l 1,0,-1
EndSplineSet
Validated: 1
EndChar

StartChar: F
Encoding: 70 70 41
Width: 867
GlyphClass: 2
Flags: W
LayerCount: 2
Fore
SplineSet
72 0 m 1,0,-1
 72 728 l 1,1,-1
 861 728 l 1,2,-1
 861 553 l 1,3,-1
 247 553 l 1,4,-1
 247 454 l 1,5,-1
 571 454 l 1,6,-1
 571 276 l 1,7,-1
 247 276 l 1,8,-1
 247 0 l 1,9,-1
 72 0 l 1,0,-1
EndSplineSet
Validated: 1
EndChar

StartChar: G
Encoding: 71 71 42
Width: 940
GlyphClass: 2
Flags: W
LayerCount: 2
Fore
SplineSet
60 258 m 2,0,-1
 60 471 l 2,1,2
 60 523 60 523 82 570 c 128,-1,3
 104 617 104 617 139 653 c 0,4,5
 177 689 177 689 233 710 c 0,6,7
 293 730 293 730 360 730 c 2,8,-1
 582 730 l 2,9,10
 649 730 649 730 708 709 c 0,11,12
 766 686 766 686 803 650 c 0,13,14
 840 612 840 612 861 564 c 0,15,16
 869 545 869 545 874 526 c 2,17,-1
 880 507 l 1,18,-1
 682 507 l 1,19,-1
 676 513 l 2,20,21
 669 520 669 520 663 526 c 0,22,23
 646 539 646 539 626 548 c 0,24,25
 606 555 606 555 582 555 c 2,26,-1
 360 555 l 2,27,28
 337 555 337 555 317 548 c 0,29,30
 295 541 295 541 281 528 c 0,31,32
 265 515 265 515 255 501 c 0,33,34
 246 485 246 485 247 467 c 2,35,-1
 247 262 l 2,36,37
 247 244 247 244 255 229 c 0,38,39
 265 214 265 214 281 202 c 128,-1,40
 297 190 297 190 317 183 c 0,41,42
 339 177 339 177 360 177 c 2,43,-1
 582 177 l 2,44,45
 607 177 607 177 626 183 c 0,46,47
 648 189 648 189 663 199 c 0,48,49
 679 210 679 210 688 222 c 0,50,51
 693 230 693 230 695 239 c 1,52,-1
 456 239 l 1,53,-1
 456 417 l 1,54,-1
 883 417 l 1,55,-1
 883 260 l 2,56,57
 883 206 883 206 861 159 c 0,58,59
 838 112 838 112 803 77 c 0,60,61
 765 41 765 41 708 20 c 0,62,63
 648 0 648 0 582 0 c 2,64,-1
 360 0 l 2,65,66
 292 0 292 0 234 20 c 128,-1,67
 176 40 176 40 139 76 c 128,-1,68
 102 112 102 112 82 159 c 0,69,70
 60 206 60 206 60 258 c 2,0,-1
EndSplineSet
Validated: 33
EndChar

StartChar: H
Encoding: 72 72 43
Width: 933
GlyphClass: 2
Flags: W
LayerCount: 2
Fore
SplineSet
72 0 m 1,0,-1
 72 728 l 1,1,-1
 250 728 l 1,2,-1
 250 455 l 1,3,-1
 686 455 l 1,4,-1
 686 728 l 1,5,-1
 862 728 l 1,6,-1
 862 0 l 1,7,-1
 686 0 l 1,8,-1
 686 278 l 1,9,-1
 250 278 l 1,10,-1
 250 0 l 1,11,-1
 72 0 l 1,0,-1
EndSplineSet
Validated: 1
EndChar

StartChar: I
Encoding: 73 73 44
Width: 316
GlyphClass: 2
Flags: W
LayerCount: 2
Fore
SplineSet
72 0 m 1,0,-1
 72 729 l 1,1,-1
 247 729 l 1,2,-1
 247 0 l 1,3,-1
 72 0 l 1,0,-1
EndSplineSet
Validated: 1
EndChar

StartChar: J
Encoding: 74 74 45
Width: 890
GlyphClass: 2
Flags: W
LayerCount: 2
Fore
SplineSet
5 269 m 2,0,-1
 5 285 l 1,1,-1
 191 285 l 1,2,-1
 191 269 l 2,3,4
 191 251 191 251 200 232 c 0,5,6
 210 215 210 215 224 204 c 0,7,8
 240 192 240 192 261 183 c 0,9,10
 283 176 283 176 305 176 c 2,11,-1
 524 176 l 2,12,13
 547 176 547 176 569 183 c 0,14,15
 599 192 599 192 605 202 c 0,16,17
 609 208 609 208 629 230 c 0,18,19
 637 239 637 239 638 264 c 2,20,-1
 644 728 l 1,21,-1
 823 728 l 1,22,-1
 825 258 l 2,23,24
 825 204 825 204 804 158 c 0,25,26
 781 112 781 112 745 77 c 0,27,28
 706 40 706 40 651 20 c 0,29,30
 590 0 590 0 524 0 c 2,31,-1
 305 0 l 2,32,33
 235 0 235 0 178 22 c 0,34,35
 121 45 121 45 85 80 c 0,36,37
 48 117 48 117 27 165 c 0,38,39
 5 214 5 214 5 269 c 2,0,-1
EndSplineSet
Validated: 1
EndChar

StartChar: K
Encoding: 75 75 46
Width: 911
GlyphClass: 2
Flags: W
LayerCount: 2
Fore
SplineSet
72 0 m 1,0,-1
 72 727 l 1,1,-1
 249 727 l 1,2,-1
 249 548 l 1,3,-1
 557 727 l 1,4,-1
 898 727 l 1,5,-1
 465 476 l 1,6,-1
 878 0 l 1,7,-1
 651 0 l 1,8,-1
 303 402 l 1,9,-1
 249 371 l 1,10,-1
 249 0 l 1,11,-1
 72 0 l 1,0,-1
EndSplineSet
Validated: 1
EndChar

StartChar: L
Encoding: 76 76 47
Width: 869
GlyphClass: 2
Flags: W
LayerCount: 2
Fore
SplineSet
72 0 m 1,0,-1
 72 729 l 1,1,-1
 247 729 l 1,2,-1
 247 178 l 1,3,-1
 862 178 l 1,4,-1
 862 0 l 1,5,-1
 72 0 l 1,0,-1
EndSplineSet
Validated: 1
EndChar

StartChar: M
Encoding: 77 77 48
Width: 932
GlyphClass: 2
Flags: W
LayerCount: 2
Fore
SplineSet
72 0 m 1,0,-1
 72 728 l 1,1,-1
 240 728 l 1,2,-1
 466 516 l 1,3,-1
 693 728 l 1,4,-1
 861 728 l 1,5,-1
 861 0 l 1,6,-1
 684 0 l 1,7,-1
 684 500 l 1,8,-1
 615 437 l 1,9,-1
 618 437 l 1,10,-1
 466 298 l 1,11,-1
 246 500 l 1,12,-1
 246 0 l 1,13,-1
 72 0 l 1,0,-1
EndSplineSet
Validated: 1
EndChar

StartChar: N
Encoding: 78 78 49
Width: 935
GlyphClass: 2
Flags: W
LayerCount: 2
Fore
SplineSet
72 0 m 1,0,-1
 72 728 l 1,1,-1
 238 728 l 1,2,-1
 687 487 l 1,3,-1
 687 728 l 1,4,-1
 864 728 l 1,5,-1
 864 0 l 1,6,-1
 687 0 l 1,7,-1
 687 315 l 1,8,-1
 249 550 l 1,9,-1
 249 0 l 1,10,-1
 72 0 l 1,0,-1
EndSplineSet
Validated: 1
EndChar

StartChar: O
Encoding: 79 79 50
Width: 942
GlyphClass: 2
Flags: W
LayerCount: 2
Fore
SplineSet
61 258 m 2,0,-1
 61 469 l 2,1,2
 61 522 61 522 83 569 c 128,-1,3
 105 616 105 616 140 651 c 0,4,5
 177 686 177 686 234 707 c 0,6,7
 294 727 294 727 361 727 c 2,8,-1
 581 727 l 2,9,10
 649 727 649 727 708 707 c 0,11,12
 766 687 766 687 802 651 c 0,13,14
 839 615 839 615 859 569 c 0,15,16
 881 521 881 521 881 469 c 2,17,-1
 881 258 l 2,18,19
 881 205 881 205 859 158 c 128,-1,20
 837 111 837 111 802 76 c 0,21,22
 765 41 765 41 708 20 c 0,23,24
 648 0 648 0 581 0 c 2,25,-1
 361 0 l 2,26,27
 293 0 293 0 234 20 c 0,28,29
 176 40 176 40 140 76 c 0,30,31
 103 112 103 112 83 158 c 0,32,33
 61 206 61 206 61 258 c 2,0,-1
246 262 m 2,34,35
 246 244 246 244 255 229 c 0,36,37
 265 214 265 214 281 202 c 128,-1,38
 297 190 297 190 317 183 c 0,39,40
 339 177 339 177 361 177 c 2,41,-1
 581 177 l 2,42,43
 629 178 629 178 660 202 c 1,44,45
 692 227 692 227 692 262 c 2,46,-1
 692 465 l 2,47,48
 692 483 692 483 684 499 c 0,49,50
 675 515 675 515 659 527 c 128,-1,51
 643 539 643 539 624 546 c 0,52,53
 604 552 604 552 581 553 c 2,54,-1
 361 553 l 2,55,56
 336 553 336 553 318 546 c 0,57,58
 298 538 298 538 282 526 c 0,59,60
 266 513 266 513 256 498 c 0,61,62
 247 483 247 483 246 465 c 2,63,-1
 246 262 l 2,34,35
EndSplineSet
Validated: 1
EndChar

StartChar: P
Encoding: 80 80 51
Width: 880
GlyphClass: 2
Flags: W
LayerCount: 2
Fore
SplineSet
72 0 m 1,0,-1
 72 727 l 1,1,-1
 581 727 l 2,2,3
 641 726 641 726 692 707 c 0,4,5
 743 687 743 687 782 651 c 1,6,7
 819 613 819 613 840 566 c 0,8,9
 860 518 860 518 860 465 c 0,10,11
 860 411 860 411 839 362 c 0,12,13
 817 315 817 315 781 280 c 0,14,15
 744 244 744 244 693 223 c 0,16,17
 640 203 640 203 581 203 c 2,18,-1
 250 203 l 1,19,-1
 250 0 l 1,20,-1
 72 0 l 1,0,-1
250 380 m 1,21,-1
 581 380 l 2,22,23
 624 381 624 381 652 404 c 1,24,25
 680 429 680 429 680 465 c 0,26,27
 680 484 680 484 672 500 c 128,-1,28
 664 516 664 516 650 527 c 0,29,30
 636 539 636 539 618 546 c 0,31,32
 600 552 600 552 581 552 c 2,33,-1
 250 552 l 1,34,-1
 250 380 l 1,21,-1
EndSplineSet
Validated: 1
EndChar

StartChar: Q
Encoding: 81 81 52
Width: 913
GlyphClass: 2
Flags: W
LayerCount: 2
Fore
SplineSet
60 259 m 2,0,-1
 60 469 l 2,1,2
 60 524 60 524 82 572 c 0,3,4
 105 620 105 620 140 655 c 0,5,6
 178 691 178 691 227 711 c 0,7,8
 277 731 277 731 331 731 c 2,9,-1
 549 731 l 2,10,11
 623 731 623 731 682 712 c 0,12,13
 731 692 731 692 768 656 c 0,14,15
 806 620 806 620 827 573 c 0,16,17
 850 524 850 524 850 469 c 2,18,-1
 850 259 l 2,19,20
 850 214 850 214 835 172 c 0,21,22
 821 135 821 135 797 106 c 1,23,-1
 861 0 l 1,24,-1
 660 0 l 1,25,-1
 650 11 l 1,26,27
 628 7 628 7 609 4 c 0,28,29
 578 0 578 0 549 0 c 2,30,-1
 331 0 l 2,31,32
 275 0 275 0 225 20 c 0,33,34
 176 40 176 40 139 76 c 128,-1,35
 102 112 102 112 82 158 c 0,36,37
 60 205 60 205 60 259 c 2,0,-1
236 263 m 2,38,39
 236 246 236 246 242 230 c 0,40,41
 249 215 249 215 261 203 c 0,42,43
 274 191 274 191 292 183 c 0,44,45
 310 176 310 176 331 176 c 2,46,-1
 525 176 l 1,47,-1
 462 278 l 1,48,-1
 674 278 l 1,49,-1
 674 465 l 2,50,51
 674 485 674 485 666 502 c 0,52,53
 656 518 656 518 639 529 c 0,54,55
 621 540 621 540 598 547 c 0,56,57
 574 553 574 553 549 553 c 2,58,-1
 331 553 l 2,59,60
 312 553 312 553 294 547 c 0,61,62
 277 540 277 540 263 528 c 0,63,64
 250 516 250 516 243 501 c 128,-1,65
 236 486 236 486 236 465 c 2,66,-1
 236 263 l 2,38,39
EndSplineSet
Validated: 1
EndChar

StartChar: R
Encoding: 82 82 53
Width: 924
GlyphClass: 2
Flags: W
LayerCount: 2
Fore
SplineSet
72 0 m 1,0,-1
 72 729 l 1,1,-1
 625 729 l 1,2,-1
 626 729 l 2,3,4
 679 722 679 722 722 700 c 0,5,6
 765 677 765 677 796 645 c 0,7,8
 827 610 827 610 844 569 c 0,9,10
 861 526 861 526 862 482 c 2,11,-1
 862 463 l 2,12,13
 862 432 862 432 853 401 c 128,-1,14
 844 370 844 370 828 343 c 0,15,16
 812 315 812 315 790 293 c 0,17,18
 773 275 773 275 753 261 c 1,19,-1
 873 0 l 1,20,-1
 679 0 l 1,21,-1
 574 206 l 1,22,-1
 250 206 l 1,23,-1
 250 0 l 1,24,-1
 72 0 l 1,0,-1
250 384 m 1,25,-1
 585 384 l 2,26,27
 607 384 607 384 625 390 c 0,28,29
 643 397 643 397 657 409 c 128,-1,30
 671 421 671 421 680 436 c 0,31,32
 687 451 687 451 687 470 c 0,33,34
 687 487 687 487 679 502 c 0,35,36
 670 518 670 518 656 530 c 0,37,38
 641 542 641 542 623 550 c 0,39,40
 605 557 605 557 585 557 c 2,41,-1
 250 557 l 1,42,-1
 250 384 l 1,25,-1
EndSplineSet
Validated: 1
EndChar

StartChar: S
Encoding: 83 83 54
Width: 911
GlyphClass: 2
Flags: W
LayerCount: 2
Fore
SplineSet
58 234 m 2,0,-1
 58 250 l 1,1,-1
 238 250 l 1,2,-1
 238 234 l 2,3,4
 239 211 239 211 257 195 c 1,5,6
 276 178 276 178 299 176 c 2,7,-1
 612 176 l 2,8,9
 621 176 621 176 632 179 c 0,10,11
 643 183 643 183 651 190 c 0,12,13
 660 197 660 197 667 207 c 0,14,15
 672 216 672 216 673 226 c 0,16,17
 672 249 672 249 654 262 c 1,18,19
 634 275 634 275 612 276 c 2,20,-1
 299 276 l 2,21,22
 246 276 246 276 201 295 c 0,23,24
 156 313 156 313 125 344 c 0,25,26
 93 376 93 376 76 416 c 0,27,28
 59 457 59 457 58 504 c 0,29,30
 58 553 58 553 77 594 c 0,31,32
 96 636 96 636 127 665 c 0,33,34
 160 696 160 696 203 713 c 0,35,36
 249 730 249 730 299 730 c 2,37,-1
 612 730 l 2,38,39
 661 730 661 730 706 713 c 0,40,41
 750 695 750 695 782 664 c 0,42,43
 815 632 815 632 834 590 c 0,44,45
 853 546 853 546 853 496 c 2,46,-1
 853 480 l 1,47,-1
 673 480 l 1,48,-1
 673 496 l 2,49,50
 673 509 673 509 667 520 c 128,-1,51
 661 531 661 531 652 539 c 0,52,53
 642 547 642 547 632 552 c 0,54,55
 621 556 621 556 612 556 c 2,56,-1
 299 556 l 2,57,58
 287 556 287 556 278 552 c 0,59,60
 266 547 266 547 257 540 c 0,61,62
 248 532 248 532 243 522 c 0,63,64
 238 513 238 513 238 504 c 0,65,66
 239 484 239 484 256 469 c 1,67,68
 275 454 275 454 299 454 c 2,69,-1
 612 454 l 2,70,71
 662 454 662 454 708 436 c 0,72,73
 752 418 752 418 783 388 c 0,74,75
 815 357 815 357 834 317 c 0,76,77
 853 276 853 276 853 227 c 0,78,79
 853 177 853 177 834 135 c 0,80,81
 815 94 815 94 782 65 c 0,82,83
 749 34 749 34 707 17 c 0,84,85
 662 1 662 1 612 0 c 2,86,-1
 299 0 l 2,87,88
 247 0 247 0 202 18 c 0,89,90
 158 36 158 36 126 68 c 0,91,92
 94 101 94 101 77 142 c 0,93,94
 60 185 60 185 58 234 c 2,0,-1
EndSplineSet
Validated: 1
EndChar

StartChar: T
Encoding: 84 84 55
Width: 847
GlyphClass: 2
Flags: W
LayerCount: 2
Fore
SplineSet
30 554 m 1,0,-1
 30 727 l 1,1,-1
 818 727 l 1,2,-1
 818 554 l 1,3,-1
 517 554 l 1,4,-1
 527 0 l 1,5,-1
 351 0 l 1,6,-1
 331 554 l 1,7,-1
 30 554 l 1,0,-1
EndSplineSet
Validated: 1
EndChar

StartChar: U
Encoding: 85 85 56
Width: 922
GlyphClass: 2
Flags: W
LayerCount: 2
Fore
SplineSet
67 260 m 2,0,-1
 67 729 l 1,1,-1
 241 729 l 1,2,-1
 241 266 l 2,3,4
 241 247 241 247 249 231 c 0,5,6
 258 215 258 215 270 203 c 0,7,8
 285 191 285 191 304 184 c 0,9,10
 323 178 323 178 345 177 c 2,11,-1
 579 177 l 2,12,13
 602 177 602 177 620 184 c 0,14,15
 639 191 639 191 653 203 c 128,-1,16
 667 215 667 215 675 231 c 128,-1,17
 683 247 683 247 683 266 c 2,18,-1
 683 729 l 1,19,-1
 857 729 l 1,20,-1
 857 260 l 2,21,22
 857 206 857 206 836 159 c 0,23,24
 814 112 814 112 778 76 c 0,25,26
 740 40 740 40 691 20 c 0,27,28
 639 0 639 0 579 0 c 2,29,-1
 345 0 l 2,30,31
 284 0 284 0 232 20 c 0,32,33
 183 40 183 40 145 76 c 0,34,35
 108 112 108 112 88 159 c 0,36,37
 66 207 66 207 67 260 c 2,0,-1
EndSplineSet
Validated: 33
EndChar

StartChar: V
Encoding: 86 86 57
Width: 846
GlyphClass: 2
Flags: W
LayerCount: 2
Fore
SplineSet
30 728 m 1,0,-1
 222 728 l 1,1,-1
 446 239 l 1,2,-1
 638 728 l 1,3,-1
 830 728 l 1,4,-1
 528 0 l 1,5,-1
 362 0 l 1,6,-1
 30 728 l 1,0,-1
EndSplineSet
Validated: 1
EndChar

StartChar: W
Encoding: 87 87 58
Width: 891
GlyphClass: 2
Flags: W
LayerCount: 2
Fore
SplineSet
50 729 m 1,0,-1
 230 729 l 1,1,-1
 326 247 l 1,2,-1
 450 435 l 1,3,-1
 574 247 l 1,4,-1
 670 729 l 1,5,-1
 851 729 l 1,6,-1
 691 0 l 1,7,-1
 521 0 l 1,8,-1
 450 114 l 1,9,-1
 360 0 l 1,10,-1
 193 0 l 1,11,-1
 50 729 l 1,0,-1
EndSplineSet
Validated: 1
EndChar

StartChar: X
Encoding: 88 88 59
Width: 910
GlyphClass: 2
Flags: W
LayerCount: 2
Fore
SplineSet
57 0 m 1,0,-1
 350 366 l 1,1,-1
 60 728 l 1,2,-1
 282 728 l 1,3,-1
 469 500 l 1,4,-1
 656 728 l 1,5,-1
 878 728 l 1,6,-1
 591 366 l 1,7,-1
 884 0 l 1,8,-1
 663 0 l 1,9,-1
 469 234 l 1,10,-1
 279 0 l 1,11,-1
 57 0 l 1,0,-1
EndSplineSet
Validated: 1
EndChar

StartChar: Y
Encoding: 89 89 60
Width: 835
GlyphClass: 2
Flags: W
LayerCount: 2
Fore
SplineSet
25 729 m 1,0,-1
 246 729 l 1,1,-1
 435 502 l 1,2,-1
 618 729 l 1,3,-1
 842 729 l 1,4,-1
 528 341 l 1,5,-1
 528 0 l 1,6,-1
 336 0 l 1,7,-1
 336 341 l 1,8,-1
 25 729 l 1,0,-1
EndSplineSet
Validated: 1
EndChar

StartChar: Z
Encoding: 90 90 61
Width: 935
GlyphClass: 2
Flags: W
LayerCount: 2
Fore
SplineSet
72 137 m 1,0,-1
 600 553 l 1,1,-1
 100 553 l 1,2,-1
 100 728 l 1,3,-1
 890 728 l 1,4,-1
 890 570 l 1,5,-1
 389 178 l 1,6,-1
 890 178 l 1,7,-1
 890 0 l 1,8,-1
 100 0 l 1,9,-1
 100 137 l 1,10,-1
 72 137 l 1,0,-1
EndSplineSet
Validated: 1
EndChar

StartChar: bracketleft
Encoding: 91 91 62
Width: 358
GlyphClass: 2
Flags: W
LayerCount: 2
Fore
SplineSet
72 -63 m 1,0,-1
 72 768 l 1,1,-1
 289 768 l 1,2,-1
 289 686 l 1,3,-1
 220 686 l 1,4,-1
 220 18 l 1,5,-1
 289 18 l 1,6,-1
 289 -63 l 1,7,-1
 72 -63 l 1,0,-1
EndSplineSet
Validated: 1
EndChar

StartChar: backslash
Encoding: 92 92 63
Width: 788
GlyphClass: 2
Flags: W
LayerCount: 2
Fore
SplineSet
72 746 m 1,0,-1
 268 746 l 1,1,-1
 742 -17 l 1,2,-1
 547 -17 l 1,3,-1
 72 746 l 1,0,-1
EndSplineSet
Validated: 1
EndChar

StartChar: bracketright
Encoding: 93 93 64
Width: 358
GlyphClass: 2
Flags: W
LayerCount: 2
Fore
SplineSet
72 18 m 1,0,-1
 140 18 l 1,1,-1
 140 686 l 1,2,-1
 72 686 l 1,3,-1
 72 768 l 1,4,-1
 289 768 l 1,5,-1
 289 -63 l 1,6,-1
 72 -63 l 1,7,-1
 72 18 l 1,0,-1
EndSplineSet
Validated: 1
EndChar

StartChar: asciicircum
Encoding: 94 94 65
Width: 883
GlyphClass: 2
Flags: W
LayerCount: 2
Fore
SplineSet
292 804 m 1,0,-1
 439 925 l 1,1,-1
 585 804 l 1,2,-1
 532 760 l 1,3,-1
 439 851 l 1,4,-1
 347 760 l 1,5,-1
 292 804 l 1,0,-1
EndSplineSet
Validated: 1
EndChar

StartChar: underscore
Encoding: 95 95 66
Width: 573
GlyphClass: 2
Flags: W
LayerCount: 2
Fore
SplineSet
0 -77 m 1,0,-1
 573 -77 l 1,1,-1
 573 -159 l 1,2,-1
 0 -159 l 1,3,-1
 0 -77 l 1,0,-1
EndSplineSet
Validated: 1
EndChar

StartChar: grave
Encoding: 96 96 67
Width: 243
GlyphClass: 2
Flags: W
LayerCount: 2
Fore
SplineSet
32 840 m 1,0,-1
 106 901 l 1,1,-1
 227 804 l 1,2,-1
 168 759 l 1,3,-1
 32 840 l 1,0,-1
EndSplineSet
Validated: 1
EndChar

StartChar: braceleft
Encoding: 123 123 94
Width: 409
GlyphClass: 2
Flags: W
LayerCount: 2
Fore
SplineSet
71 287 m 1,0,-1
 71 381 l 1,1,-1
 80 384 l 2,2,3
 113 398 113 398 129 430 c 0,4,5
 145 465 145 465 145 517 c 2,6,-1
 145 701 l 2,7,8
 145 736 145 736 160 767 c 0,9,10
 174 799 174 799 197 821 c 0,11,12
 222 845 222 845 252 860 c 0,13,14
 285 874 285 874 322 874 c 2,15,-1
 337 874 l 1,16,-1
 337 750 l 1,17,-1
 322 750 l 2,18,19
 310 750 310 750 301 744 c 0,20,21
 291 738 291 738 284 732 c 0,22,23
 277 724 277 724 272 715 c 0,24,25
 268 706 268 706 268 698 c 2,26,-1
 268 500 l 2,27,28
 268 456 268 456 257 424 c 128,-1,29
 246 392 246 392 232 371 c 0,30,31
 218 349 218 349 204 337 c 0,32,33
 202 335 202 335 201 334 c 1,34,35
 203 332 203 332 205 331 c 0,36,37
 219 318 219 318 232 296 c 0,38,39
 246 274 246 274 257 244 c 0,40,41
 268 211 268 211 268 168 c 2,42,-1
 268 -31 l 2,43,44
 268 -40 268 -40 272 -48 c 0,45,46
 277 -57 277 -57 284 -66 c 0,47,48
 292 -74 292 -74 301 -78 c 0,49,50
 311 -82 311 -82 322 -82 c 2,51,-1
 337 -82 l 1,52,-1
 337 -207 l 1,53,-1
 322 -207 l 2,54,55
 284 -207 284 -207 252 -193 c 128,-1,56
 220 -179 220 -179 197 -154 c 0,57,58
 173 -129 173 -129 160 -99 c 0,59,60
 146 -67 146 -67 145 -34 c 2,61,-1
 145 151 l 2,62,63
 145 204 145 204 129 238 c 1,64,65
 112 270 112 270 80 284 c 2,66,-1
 71 287 l 1,0,-1
EndSplineSet
Validated: 1
EndChar

StartChar: bar
Encoding: 124 124 95
Width: 903
GlyphClass: 2
Flags: W
LayerCount: 2
Fore
SplineSet
375 0 m 1,0,-1
 375 768 l 1,1,-1
 523 768 l 1,2,-1
 523 0 l 1,3,-1
 375 0 l 1,0,-1
EndSplineSet
Validated: 1
EndChar

StartChar: braceright
Encoding: 125 125 96
Width: 409
GlyphClass: 2
Flags: W
LayerCount: 2
Fore
SplineSet
71 -82 m 1,0,-1
 86 -82 l 2,1,2
 98 -82 98 -82 106 -78 c 0,3,4
 116 -73 116 -73 124 -66 c 0,5,6
 131 -58 131 -58 135 -48 c 0,7,8
 139 -39 139 -39 139 -31 c 2,9,-1
 139 168 l 2,10,11
 139 212 139 212 150 244 c 0,12,13
 160 276 160 276 174 297 c 0,14,15
 190 319 190 319 203 331 c 0,16,17
 205 333 205 333 206 334 c 1,18,-1
 203 337 l 0,19,20
 189 350 189 350 174 371 c 0,21,22
 160 394 160 394 150 424 c 0,23,24
 140 457 140 457 139 500 c 2,25,-1
 139 698 l 2,26,27
 139 706 139 706 135 715 c 0,28,29
 130 724 130 724 124 732 c 0,30,31
 116 740 116 740 106 744 c 0,32,33
 97 749 97 749 86 750 c 2,34,-1
 71 750 l 1,35,-1
 71 874 l 1,36,-1
 86 874 l 2,37,38
 124 874 124 874 156 860 c 128,-1,39
 188 846 188 846 211 821 c 0,40,41
 235 796 235 796 248 767 c 0,42,43
 262 735 262 735 262 701 c 2,44,-1
 262 517 l 2,45,46
 262 464 262 464 279 430 c 1,47,48
 296 398 296 398 328 384 c 2,49,-1
 337 381 l 1,50,-1
 337 287 l 1,51,-1
 328 284 l 2,52,53
 295 270 295 270 279 238 c 0,54,55
 263 203 263 203 262 151 c 2,56,-1
 262 -34 l 2,57,58
 262 -70 262 -70 248 -99 c 0,59,60
 234 -130 234 -130 211 -154 c 0,61,62
 186 -178 186 -178 156 -193 c 0,63,64
 123 -207 123 -207 86 -207 c 2,65,-1
 71 -207 l 1,66,-1
 71 -82 l 1,0,-1
EndSplineSet
Validated: 1
EndChar

StartChar: dieresis
Encoding: 168 168 98
Width: 911
GlyphClass: 2
Flags: W
LayerCount: 2
Fore
SplineSet
210 733 m 1,0,-1
 210 815 l 1,1,-1
 394 815 l 1,2,-1
 394 733 l 1,3,-1
 210 733 l 1,0,-1
479 733 m 1,4,-1
 479 815 l 1,5,-1
 664 815 l 1,6,-1
 664 733 l 1,7,-1
 479 733 l 1,4,-1
EndSplineSet
Validated: 1
EndChar

StartChar: copyright
Encoding: 169 169 99
Width: 591
GlyphClass: 2
Flags: W
LayerCount: 2
Fore
SplineSet
71 536 m 128,-1,1
 71 576 71 576 87 611 c 0,2,3
 104 647 104 647 132 674 c 0,4,5
 161 701 161 701 200 715 c 0,6,7
 246 730 246 730 296 730 c 0,8,9
 347 730 347 730 392 715 c 0,10,11
 431 699 431 699 460 673 c 0,12,13
 489 645 489 645 504 611 c 0,14,15
 520 575 520 575 520 536 c 0,16,17
 520 496 520 496 504 460 c 0,18,19
 487 424 487 424 459 399 c 0,20,21
 430 372 430 372 392 357 c 0,22,23
 347 342 347 342 296 342 c 0,24,25
 244 342 244 342 199 357 c 0,26,27
 160 374 160 374 132 399 c 0,28,29
 103 426 103 426 87 460 c 0,30,0
 71 496 71 496 71 536 c 128,-1,1
139 536 m 0,31,32
 139 506 139 506 150 480 c 128,-1,33
 161 454 161 454 179 435 c 0,34,35
 199 416 199 416 229 406 c 0,36,37
 260 395 260 395 296 394 c 0,38,39
 332 394 332 394 361 406 c 0,40,41
 392 417 392 417 411 435 c 2,42,-1
 411 436 l 1,43,-1
 412 436 l 2,44,45
 452 475 452 475 452 536 c 0,46,47
 452 566 452 566 441 591 c 0,48,49
 430 617 430 617 412 636 c 0,50,51
 392 655 392 655 361 666 c 128,-1,52
 330 677 330 677 296 677 c 0,53,54
 259 677 259 677 229 666 c 0,55,56
 198 655 198 655 179 636 c 0,57,58
 161 617 161 617 150 591 c 0,59,60
 140 564 140 564 139 536 c 0,31,32
170 507 m 2,61,-1
 170 564 l 2,62,63
 171 601 171 601 196 624 c 1,64,65
 225 645 225 645 259 645 c 0,66,67
 261 645 261 645 262 645 c 2,68,-1
 330 645 l 2,69,70
 368 644 368 644 395 623 c 1,71,72
 420 599 420 599 421 565 c 2,73,-1
 421 550 l 1,74,-1
 343 550 l 1,75,-1
 343 565 l 2,76,77
 342 570 342 570 339 573 c 0,78,79
 334 576 334 576 330 577 c 2,80,-1
 262 577 l 2,81,82
 254 577 254 577 251 573 c 129,-1,83
 248 569 248 569 248 564 c 2,84,-1
 248 507 l 2,85,86
 249 501 249 501 251 498 c 1,87,88
 255 496 255 496 262 496 c 2,89,-1
 330 496 l 2,90,91
 336 497 336 497 340 499 c 1,92,93
 343 503 343 503 343 507 c 2,94,-1
 343 522 l 1,95,-1
 421 522 l 1,96,-1
 421 507 l 2,97,98
 420 473 420 473 396 451 c 1,99,100
 367 428 367 428 330 427 c 2,101,-1
 262 427 l 2,102,103
 221 428 221 428 194 451 c 1,104,105
 171 476 171 476 170 507 c 2,61,-1
EndSplineSet
Validated: 1
EndChar

StartChar: guillemotleft
Encoding: 171 171 100
Width: 689
GlyphClass: 2
Flags: W
LayerCount: 2
Fore
SplineSet
29 317 m 1,0,-1
 338 600 l 1,1,-1
 338 439 l 1,2,-1
 205 317 l 1,3,-1
 338 196 l 1,4,-1
 338 35 l 1,5,-1
 29 317 l 1,0,-1
315 317 m 1,6,-1
 625 600 l 1,7,-1
 625 439 l 1,8,-1
 503 317 l 1,9,-1
 625 196 l 1,10,-1
 625 35 l 1,11,-1
 315 317 l 1,6,-1
EndSplineSet
Validated: 1
EndChar

StartChar: registered
Encoding: 174 174 101
Width: 589
GlyphClass: 2
Flags: W
LayerCount: 2
Fore
SplineSet
72 536 m 0,0,1
 72 576 72 576 88 610 c 0,2,3
 104 645 104 645 132 672 c 0,4,5
 161 699 161 699 199 713 c 0,6,7
 245 728 245 728 295 728 c 0,8,9
 346 727 346 727 390 713 c 0,10,11
 429 698 429 698 458 672 c 0,12,13
 487 644 487 644 502 610 c 0,14,15
 518 574 518 574 518 536 c 0,16,17
 518 496 518 496 502 461 c 128,-1,18
 486 426 486 426 457 399 c 128,-1,19
 428 372 428 372 390 358 c 0,20,21
 345 343 345 343 295 343 c 0,22,23
 244 343 244 343 199 358 c 0,24,25
 160 373 160 373 132 399 c 0,26,27
 103 426 103 426 88 461 c 0,28,29
 72 497 72 497 72 536 c 0,0,1
139 536 m 0,30,31
 141 505 141 505 151 480 c 0,32,33
 159 461 159 461 172 445 c 1,34,-1
 172 626 l 1,35,36
 159 611 159 611 151 591 c 0,37,38
 140 565 140 565 139 536 c 0,30,31
189 437 m 1,39,40
 206 427 206 427 230 420 c 0,41,42
 260 411 260 411 295 411 c 0,43,44
 329 411 329 411 359 420 c 0,45,46
 382 427 382 427 400 437 c 1,47,-1
 345 437 l 1,48,-1
 315 484 l 1,49,-1
 247 484 l 1,50,-1
 247 437 l 1,51,-1
 189 437 l 1,39,40
190 644 m 1,52,-1
 340 644 l 1,53,-1
 342 644 l 2,54,55
 377 637 377 637 398 617 c 1,56,57
 417 594 417 594 418 564 c 1,58,59
 417 532 417 532 395 508 c 2,60,-1
 394 507 l 1,61,-1
 392 505 l 1,62,-1
 418 446 l 1,63,64
 430 461 430 461 439 481 c 0,65,66
 450 507 450 507 451 536 c 0,67,68
 451 566 451 566 439 591 c 0,69,70
 428 617 428 617 410 635 c 0,71,72
 390 654 390 654 359 665 c 128,-1,73
 328 676 328 676 295 676 c 0,74,75
 259 676 259 676 230 665 c 0,76,77
 208 657 208 657 190 644 c 1,52,-1
247 552 m 1,78,-1
 328 552 l 2,79,80
 334 553 334 553 338 556 c 0,81,82
 342 561 342 561 342 564 c 0,83,84
 341 569 341 569 338 572 c 0,85,86
 333 575 333 575 328 577 c 2,87,-1
 247 577 l 1,88,-1
 247 552 l 1,78,-1
EndSplineSet
Validated: 1
EndChar

StartChar: degree
Encoding: 176 176 102
Width: 474
GlyphClass: 2
Flags: W
LayerCount: 2
Fore
SplineSet
51 589 m 0,0,1
 51 621 51 621 65 649 c 0,2,3
 79 678 79 678 101 698 c 0,4,5
 125 718 125 718 156 731 c 0,6,7
 192 744 192 744 237 744 c 0,8,9
 284 744 284 744 318 731 c 0,10,11
 350 719 350 719 373 698 c 0,12,13
 397 677 397 677 410 649 c 0,14,15
 423 620 423 620 423 589 c 0,16,17
 423 557 423 557 410 529 c 0,18,19
 396 501 396 501 373 480 c 0,20,21
 349 460 349 460 318 447 c 0,22,23
 281 434 281 434 237 434 c 0,24,25
 190 434 190 434 156 447 c 0,26,27
 125 459 125 459 101 480 c 0,28,29
 77 502 77 502 65 529 c 0,30,31
 52 558 52 558 51 589 c 0,0,1
148 589 m 0,32,33
 148 574 148 574 155 561 c 0,34,35
 161 548 161 548 170 538 c 0,36,37
 182 528 182 528 200 522 c 0,38,39
 217 517 217 517 237 516 c 0,40,41
 257 516 257 516 274 522 c 0,42,43
 292 528 292 528 304 538 c 0,44,45
 313 549 313 549 319 561 c 0,46,47
 324 574 324 574 326 589 c 0,48,49
 325 620 325 620 304 641 c 1,50,51
 275 663 275 663 237 663 c 0,52,53
 217 663 217 663 200 656 c 0,54,55
 182 650 182 650 170 641 c 0,56,57
 160 631 160 631 155 617 c 0,58,59
 149 603 149 603 148 589 c 0,32,33
EndSplineSet
Validated: 1
EndChar

StartChar: acute
Encoding: 180 180 103
Width: 839
GlyphClass: 2
Flags: W
LayerCount: 2
Fore
SplineSet
379 804 m 1,0,-1
 496 904 l 1,1,-1
 570 843 l 1,2,-1
 433 756 l 1,3,-1
 379 804 l 1,0,-1
EndSplineSet
Validated: 1
EndChar

StartChar: guillemotright
Encoding: 187 187 104
Width: 689
GlyphClass: 2
Flags: W
LayerCount: 2
Fore
SplineSet
73 35 m 1,0,-1
 73 196 l 1,1,-1
 195 317 l 1,2,-1
 73 439 l 1,3,-1
 73 600 l 1,4,-1
 382 317 l 1,5,-1
 73 35 l 1,0,-1
359 35 m 1,6,-1
 359 196 l 1,7,-1
 493 317 l 1,8,-1
 359 439 l 1,9,-1
 359 600 l 1,10,-1
 669 317 l 1,11,-1
 359 35 l 1,6,-1
EndSplineSet
Validated: 1
EndChar

StartChar: Agrave
Encoding: 192 192 105
Width: 831
GlyphClass: 2
Flags: W
LayerCount: 2
Fore
SplineSet
25 0 m 1,0,-1
 329 728 l 1,1,-1
 422 728 l 1,2,-1
 275 826 l 1,3,-1
 356 901 l 1,4,-1
 486 783 l 1,5,-1
 424 728 l 1,6,-1
 520 728 l 1,7,-1
 824 0 l 1,8,-1
 636 0 l 1,9,-1
 588 94 l 1,10,-1
 257 94 l 1,11,-1
 213 0 l 1,12,-1
 25 0 l 1,0,-1
331 270 m 1,13,-1
 515 270 l 1,14,-1
 422 485 l 1,15,-1
 331 270 l 1,13,-1
EndSplineSet
Validated: 1
EndChar

StartChar: Aacute
Encoding: 193 193 106
Width: 829
GlyphClass: 2
Flags: W
LayerCount: 2
Fore
SplineSet
20 0 m 1,0,-1
 327 728 l 1,1,-1
 514 728 l 1,2,-1
 820 0 l 1,3,-1
 631 0 l 1,4,-1
 583 95 l 1,5,-1
 255 95 l 1,6,-1
 210 0 l 1,7,-1
 20 0 l 1,0,-1
327 270 m 1,8,-1
 511 270 l 1,9,-1
 418 484 l 1,10,-1
 327 270 l 1,8,-1
359 786 m 1,11,-1
 486 904 l 1,12,-1
 564 829 l 1,13,-1
 416 730 l 1,14,-1
 359 786 l 1,11,-1
EndSplineSet
Validated: 1
EndChar

StartChar: Acircumflex
Encoding: 194 194 107
Width: 843
GlyphClass: 2
Flags: W
LayerCount: 2
Fore
SplineSet
27 0 m 1,0,-1
 333 729 l 1,1,-1
 524 729 l 1,2,-1
 831 0 l 1,3,-1
 644 0 l 1,4,-1
 597 92 l 1,5,-1
 263 92 l 1,6,-1
 216 0 l 1,7,-1
 27 0 l 1,0,-1
273 785 m 1,8,-1
 430 931 l 1,9,-1
 587 785 l 1,10,-1
 529 733 l 1,11,-1
 430 826 l 1,12,-1
 330 733 l 1,13,-1
 273 785 l 1,8,-1
339 270 m 1,14,-1
 521 270 l 1,15,-1
 430 488 l 1,16,-1
 339 270 l 1,14,-1
EndSplineSet
Validated: 1
EndChar

StartChar: Atilde
Encoding: 195 195 108
Width: 857
GlyphClass: 2
Flags: W
LayerCount: 2
Fore
SplineSet
32 0 m 1,0,-1
 338 730 l 1,1,-1
 531 730 l 1,2,-1
 840 0 l 1,3,-1
 649 0 l 1,4,-1
 603 92 l 1,5,-1
 269 92 l 1,6,-1
 222 0 l 1,7,-1
 32 0 l 1,0,-1
213 803 m 1,8,-1
 221 817 l 2,9,10
 231 833 231 833 244 848 c 0,11,12
 257 864 257 864 271 876 c 0,13,14
 287 889 287 889 307 896 c 0,15,16
 329 903 329 903 352 904 c 0,17,18
 380 904 380 904 403 894 c 128,-1,19
 426 884 426 884 445 872 c 0,20,21
 463 862 463 862 480 854 c 0,22,23
 494 848 494 848 506 847 c 1,24,25
 516 848 516 848 522 854 c 0,26,27
 531 865 531 865 537 876 c 2,28,-1
 544 890 l 1,29,-1
 648 843 l 1,30,-1
 641 828 l 2,31,32
 623 794 623 794 595 768 c 0,33,34
 563 738 563 738 516 737 c 0,35,36
 485 737 485 737 461 748 c 0,37,38
 437 757 437 757 418 768 c 0,39,40
 400 779 400 779 384 787 c 0,41,42
 372 793 372 793 364 794 c 0,43,44
 350 793 350 793 342 786 c 0,45,46
 331 776 331 776 324 765 c 2,47,-1
 315 752 l 1,48,-1
 213 803 l 1,8,-1
344 271 m 1,49,-1
 528 271 l 1,50,-1
 436 489 l 1,51,-1
 344 271 l 1,49,-1
EndSplineSet
Validated: 1
EndChar

StartChar: Adieresis
Encoding: 196 196 109
Width: 848
GlyphClass: 2
Flags: W
LayerCount: 2
Fore
SplineSet
29 0 m 1,0,-1
 335 730 l 1,1,-1
 528 730 l 1,2,-1
 837 0 l 1,3,-1
 646 0 l 1,4,-1
 600 92 l 1,5,-1
 266 92 l 1,6,-1
 219 0 l 1,7,-1
 29 0 l 1,0,-1
179 736 m 1,8,-1
 179 816 l 1,9,-1
 367 816 l 1,10,-1
 367 736 l 1,11,-1
 179 736 l 1,8,-1
341 271 m 1,12,-1
 525 271 l 1,13,-1
 433 489 l 1,14,-1
 341 271 l 1,12,-1
492 736 m 1,15,-1
 492 816 l 1,16,-1
 680 816 l 1,17,-1
 680 736 l 1,18,-1
 492 736 l 1,15,-1
EndSplineSet
Validated: 1
EndChar

StartChar: Aring
Encoding: 197 197 110
Width: 857
GlyphClass: 2
Flags: W
LayerCount: 2
Fore
SplineSet
32 0 m 1,0,-1
 338 730 l 1,1,-1
 415 730 l 1,2,3
 398 732 398 732 381 738 c 0,4,5
 356 748 356 748 340 764 c 0,6,7
 323 781 323 781 311 803 c 0,8,9
 302 824 302 824 302 846 c 0,10,11
 302 875 302 875 311 897 c 0,12,13
 321 920 321 920 340 936 c 0,14,15
 358 952 358 952 381 962 c 0,16,17
 406 971 406 971 432 971 c 0,18,19
 459 971 459 971 482 962 c 0,20,21
 507 952 507 952 524 936 c 0,22,23
 541 919 541 919 552 897 c 0,24,25
 562 874 562 874 562 850 c 0,26,27
 562 825 562 825 552 803 c 0,28,29
 542 780 542 780 524 764 c 128,-1,30
 506 748 506 748 482 738 c 0,31,32
 466 732 466 732 449 730 c 1,33,-1
 531 730 l 1,34,-1
 840 0 l 1,35,-1
 649 0 l 1,36,-1
 603 92 l 1,37,-1
 269 92 l 1,38,-1
 222 0 l 1,39,-1
 32 0 l 1,0,-1
344 271 m 1,40,-1
 528 271 l 1,41,-1
 436 489 l 1,42,-1
 344 271 l 1,40,-1
379 850 m 1,43,44
 380 830 380 830 394 815 c 1,45,46
 410 801 410 801 432 801 c 1,47,48
 455 802 455 802 469 815 c 1,49,50
 484 830 484 830 484 850 c 1,51,52
 483 870 483 870 469 885 c 1,53,54
 453 899 453 899 432 899 c 1,55,56
 409 898 409 898 394 885 c 1,57,58
 379 870 379 870 379 850 c 1,43,44
EndSplineSet
Validated: 1
EndChar

StartChar: AE
Encoding: 198 198 111
Width: 1353
GlyphClass: 2
Flags: W
LayerCount: 2
Fore
SplineSet
45 0 m 1,0,-1
 348 728 l 1,1,-1
 1289 728 l 1,2,-1
 1289 553 l 1,3,-1
 691 553 l 1,4,-1
 691 456 l 1,5,-1
 1001 456 l 1,6,-1
 1001 278 l 1,7,-1
 691 278 l 1,8,-1
 691 177 l 1,9,-1
 1289 177 l 1,10,-1
 1289 0 l 1,11,-1
 508 0 l 1,12,-1
 508 93 l 1,13,-1
 283 93 l 1,14,-1
 237 0 l 1,15,-1
 45 0 l 1,0,-1
353 270 m 1,16,-1
 508 270 l 1,17,-1
 508 553 l 1,18,-1
 473 553 l 1,19,-1
 353 270 l 1,16,-1
EndSplineSet
Validated: 1
EndChar

StartChar: Ccedilla
Encoding: 199 199 112
Width: 942
GlyphClass: 2
Flags: W
LayerCount: 2
Fore
SplineSet
61 259 m 2,0,-1
 61 470 l 2,1,2
 61 524 61 524 83 571 c 0,3,4
 105 619 105 619 140 653 c 0,5,6
 178 688 178 688 237 709 c 0,7,8
 298 729 298 729 365 729 c 2,9,-1
 585 729 l 2,10,11
 648 729 648 729 708 709 c 0,12,13
 766 687 766 687 803 652 c 0,14,15
 841 615 841 615 862 567 c 0,16,17
 885 517 885 517 885 462 c 2,18,-1
 885 446 l 1,19,-1
 693 446 l 1,20,-1
 693 462 l 2,21,22
 692 479 692 479 685 496 c 0,23,24
 675 513 675 513 659 526 c 128,-1,25
 643 539 643 539 624 548 c 0,26,27
 605 556 605 556 585 556 c 2,28,-1
 365 556 l 2,29,30
 339 556 339 556 318 549 c 0,31,32
 296 541 296 541 283 528 c 0,33,34
 269 515 269 515 260 500 c 0,35,36
 252 483 252 483 252 466 c 2,37,-1
 248 263 l 2,38,39
 248 246 248 246 255 230 c 0,40,41
 263 215 263 215 275 204 c 0,42,43
 289 193 289 193 307 185 c 0,44,45
 326 178 326 178 351 178 c 2,46,-1
 598 178 l 2,47,48
 620 178 620 178 637 185 c 0,49,50
 656 192 656 192 670 205 c 0,51,52
 683 218 683 218 691 232 c 0,53,54
 698 248 698 248 698 267 c 2,55,-1
 698 283 l 1,56,-1
 885 283 l 1,57,-1
 885 267 l 2,58,59
 885 210 885 210 862 162 c 0,60,61
 838 113 838 113 801 77 c 0,62,63
 763 39 763 39 710 19 c 0,64,65
 655 -1 655 -1 598 -1 c 2,66,-1
 530 -1 l 1,67,-1
 530 -138 l 1,68,-1
 412 -138 l 1,69,-1
 436 -1 l 1,70,-1
 351 -1 l 2,71,72
 289 -1 289 -1 234 19 c 128,-1,73
 179 39 179 39 142 75 c 0,74,75
 104 111 104 111 83 158 c 0,76,77
 61 205 61 205 61 259 c 2,0,-1
EndSplineSet
Validated: 1
EndChar

StartChar: Egrave
Encoding: 200 200 113
Width: 868
GlyphClass: 2
Flags: W
LayerCount: 2
Fore
SplineSet
54 0 m 1,0,-1
 54 728 l 1,1,-1
 447 728 l 1,2,-1
 304 828 l 1,3,-1
 382 903 l 1,4,-1
 510 783 l 1,5,-1
 450 728 l 1,6,-1
 840 728 l 1,7,-1
 840 551 l 1,8,-1
 233 551 l 1,9,-1
 233 453 l 1,10,-1
 552 453 l 1,11,-1
 552 280 l 1,12,-1
 233 280 l 1,13,-1
 233 176 l 1,14,-1
 840 176 l 1,15,-1
 840 0 l 1,16,-1
 54 0 l 1,0,-1
EndSplineSet
Validated: 1
EndChar

StartChar: Eacute
Encoding: 201 201 114
Width: 871
GlyphClass: 2
Flags: W
LayerCount: 2
Fore
SplineSet
50 0 m 1,0,-1
 50 728 l 1,1,-1
 438 728 l 1,2,-1
 384 783 l 1,3,-1
 508 904 l 1,4,-1
 588 829 l 1,5,-1
 446 728 l 1,6,-1
 836 728 l 1,7,-1
 836 550 l 1,8,-1
 230 550 l 1,9,-1
 230 453 l 1,10,-1
 547 453 l 1,11,-1
 547 280 l 1,12,-1
 230 280 l 1,13,-1
 230 178 l 1,14,-1
 836 178 l 1,15,-1
 836 0 l 1,16,-1
 50 0 l 1,0,-1
EndSplineSet
Validated: 1
EndChar

StartChar: Ecircumflex
Encoding: 202 202 115
Width: 876
GlyphClass: 2
Flags: W
LayerCount: 2
Fore
SplineSet
54 0 m 1,0,-1
 54 728 l 1,1,-1
 840 728 l 1,2,-1
 840 551 l 1,3,-1
 233 551 l 1,4,-1
 233 453 l 1,5,-1
 552 453 l 1,6,-1
 552 280 l 1,7,-1
 233 280 l 1,8,-1
 233 176 l 1,9,-1
 840 176 l 1,10,-1
 840 0 l 1,11,-1
 54 0 l 1,0,-1
292 781 m 1,12,-1
 447 925 l 1,13,-1
 602 781 l 1,14,-1
 547 729 l 1,15,-1
 447 820 l 1,16,-1
 350 729 l 1,17,-1
 292 781 l 1,12,-1
EndSplineSet
Validated: 1
EndChar

StartChar: Edieresis
Encoding: 203 203 116
Width: 932
GlyphClass: 2
Flags: W
LayerCount: 2
Fore
SplineSet
72 0 m 1,0,-1
 72 728 l 1,1,-1
 861 728 l 1,2,-1
 861 554 l 1,3,-1
 249 554 l 1,4,-1
 249 456 l 1,5,-1
 571 456 l 1,6,-1
 571 279 l 1,7,-1
 249 279 l 1,8,-1
 249 177 l 1,9,-1
 861 177 l 1,10,-1
 861 0 l 1,11,-1
 72 0 l 1,0,-1
210 736 m 1,12,-1
 210 816 l 1,13,-1
 397 816 l 1,14,-1
 397 736 l 1,15,-1
 210 736 l 1,12,-1
520 736 m 1,16,-1
 520 816 l 1,17,-1
 708 816 l 1,18,-1
 708 736 l 1,19,-1
 520 736 l 1,16,-1
EndSplineSet
Validated: 1
EndChar

StartChar: Igrave
Encoding: 204 204 117
Width: 294
GlyphClass: 2
Flags: W
LayerCount: 2
Fore
SplineSet
26 830 m 1,0,-1
 101 901 l 1,1,-1
 219 782 l 1,2,-1
 162 728 l 1,3,-1
 26 830 l 1,0,-1
75 0 m 1,4,-1
 75 728 l 1,5,-1
 251 728 l 1,6,-1
 251 0 l 1,7,-1
 75 0 l 1,4,-1
EndSplineSet
Validated: 5
EndChar

StartChar: Iacute
Encoding: 205 205 118
Width: 296
GlyphClass: 2
Flags: W
LayerCount: 2
Fore
SplineSet
55 0 m 1,0,-1
 55 729 l 1,1,-1
 143 729 l 1,2,-1
 83 783 l 1,3,-1
 206 903 l 1,4,-1
 279 833 l 1,5,-1
 144 729 l 1,6,-1
 232 729 l 1,7,-1
 232 0 l 1,8,-1
 55 0 l 1,0,-1
EndSplineSet
Validated: 1
EndChar

StartChar: Icircumflex
Encoding: 206 206 119
Width: 336
GlyphClass: 2
Flags: W
LayerCount: 2
Fore
SplineSet
30 781 m 1,0,-1
 175 927 l 1,1,-1
 319 781 l 1,2,-1
 267 729 l 1,3,-1
 175 822 l 1,4,-1
 82 729 l 1,5,-1
 30 781 l 1,0,-1
87 0 m 1,6,-1
 87 728 l 1,7,-1
 262 728 l 1,8,-1
 262 0 l 1,9,-1
 87 0 l 1,6,-1
EndSplineSet
Validated: 1
EndChar

StartChar: Idieresis
Encoding: 207 207 120
Width: 347
GlyphClass: 2
Flags: W
LayerCount: 2
Fore
SplineSet
14 757 m 1,0,-1
 14 838 l 1,1,-1
 199 838 l 1,2,-1
 199 757 l 1,3,-1
 14 757 l 1,0,-1
137 0 m 1,4,-1
 137 728 l 1,5,-1
 345 728 l 1,6,-1
 345 0 l 1,7,-1
 137 0 l 1,4,-1
284 754 m 1,8,-1
 284 835 l 1,9,-1
 468 835 l 1,10,-1
 468 754 l 1,11,-1
 284 754 l 1,8,-1
EndSplineSet
Validated: 1
EndChar

StartChar: Ntilde
Encoding: 209 209 121
Width: 935
GlyphClass: 2
Flags: W
LayerCount: 2
Fore
SplineSet
72 0 m 1,0,-1
 72 728 l 1,1,-1
 238 728 l 1,2,-1
 687 487 l 1,3,-1
 687 728 l 1,4,-1
 864 728 l 1,5,-1
 864 0 l 1,6,-1
 687 0 l 1,7,-1
 687 315 l 1,8,-1
 249 550 l 1,9,-1
 249 0 l 1,10,-1
 72 0 l 1,0,-1
245 803 m 1,11,-1
 253 817 l 2,12,13
 264 833 264 833 275 848 c 0,14,15
 288 864 288 864 303 876 c 0,16,17
 319 889 319 889 340 896 c 0,18,19
 362 903 362 903 384 904 c 0,20,21
 412 904 412 904 435 894 c 128,-1,22
 458 884 458 884 476 872 c 0,23,24
 494 862 494 862 512 854 c 0,25,26
 526 848 526 848 538 847 c 1,27,28
 548 848 548 848 553 854 c 0,29,30
 562 865 562 865 568 876 c 2,31,-1
 575 890 l 1,32,-1
 679 843 l 1,33,-1
 672 828 l 2,34,35
 654 794 654 794 627 768 c 0,36,37
 595 738 595 738 547 737 c 0,38,39
 517 737 517 737 493 748 c 0,40,41
 469 757 469 757 450 768 c 0,42,43
 432 779 432 779 416 787 c 0,44,45
 404 793 404 793 395 794 c 0,46,47
 381 793 381 793 374 786 c 0,48,49
 363 776 363 776 355 765 c 2,50,-1
 348 752 l 1,51,-1
 245 803 l 1,11,-1
EndSplineSet
Validated: 1
EndChar

StartChar: Ograve
Encoding: 210 210 122
Width: 941
GlyphClass: 2
Flags: W
LayerCount: 2
Fore
SplineSet
296 828 m 1
 376 903 l 1
 502 783 l 1
 443 727 l 1
 296 828 l 1
EndSplineSet
Refer: 50 79 S 1 0 0 1 0 0 2
Validated: 98309
EndChar

StartChar: Oacute
Encoding: 211 211 123
Width: 941
GlyphClass: 2
Flags: W
LayerCount: 2
Fore
SplineSet
350 786 m 1
 475 904 l 1
 552 829 l 1
 406 730 l 1
 350 786 l 1
EndSplineSet
Refer: 50 79 S 1 0 0 1 0 0 2
Validated: 98305
EndChar

StartChar: Ocircumflex
Encoding: 212 212 124
Width: 941
GlyphClass: 2
Flags: W
LayerCount: 2
Fore
SplineSet
291 781 m 1
 447 925 l 1
 601 781 l 1
 546 729 l 1
 447 820 l 1
 349 729 l 1
 291 781 l 1
EndSplineSet
Refer: 50 79 S 1 0 0 1 0 0 2
Validated: 98305
EndChar

StartChar: Otilde
Encoding: 213 213 125
Width: 941
GlyphClass: 2
Flags: W
LayerCount: 2
Fore
SplineSet
234 803 m 1
 243 817 l 2
 253 833 253 833 265 848 c 0
 278 864 278 864 293 876 c 0
 309 889 309 889 328 896 c 0
 348 903 348 903 372 904 c 0
 399 904 399 904 423 894 c 0
 445 884 445 884 463 872 c 0
 481 862 481 862 498 854 c 0
 511 848 511 848 523 847 c 1
 533 848 533 848 539 854 c 0
 548 865 548 865 554 876 c 2
 561 890 l 1
 663 843 l 1
 656 828 l 2
 638 794 638 794 610 768 c 0
 578 738 578 738 532 737 c 0
 502 737 502 737 478 748 c 0
 454 757 454 757 436 768 c 0
 418 779 418 779 403 787 c 0
 391 793 391 793 383 794 c 0
 369 793 369 793 361 786 c 0
 351 776 351 776 344 765 c 2
 336 752 l 1
 234 803 l 1
EndSplineSet
Refer: 50 79 S 1 0 0 1 0 0 2
Validated: 98305
EndChar

StartChar: Odieresis
Encoding: 214 214 126
Width: 941
GlyphClass: 2
Flags: W
LayerCount: 2
Fore
SplineSet
210 736 m 1
 210 816 l 1
 398 816 l 1
 398 736 l 1
 210 736 l 1
521 736 m 1
 521 816 l 1
 709 816 l 1
 709 736 l 1
 521 736 l 1
EndSplineSet
Refer: 50 79 S 1 0 0 1 0 0 2
Validated: 98305
EndChar

StartChar: Ugrave
Encoding: 217 217 127
Width: 911
GlyphClass: 2
Flags: W
LayerCount: 2
Fore
SplineSet
50 261 m 2,0,-1
 50 728 l 1,1,-1
 229 728 l 1,2,-1
 238 267 l 2,3,4
 238 247 238 247 247 230 c 0,5,6
 257 213 257 213 271 202 c 0,7,8
 287 190 287 190 307 182 c 0,9,10
 327 176 327 176 349 176 c 2,11,-1
 567 176 l 2,12,13
 589 176 589 176 609 183 c 0,14,15
 631 190 631 190 646 202 c 0,16,17
 662 215 662 215 673 230 c 0,18,19
 682 247 682 247 683 267 c 2,20,-1
 659 728 l 1,21,-1
 836 728 l 1,22,-1
 866 261 l 2,23,24
 866 205 866 205 844 157 c 0,25,26
 821 109 821 109 785 75 c 0,27,28
 747 38 747 38 690 19 c 0,29,30
 630 0 630 0 567 0 c 2,31,-1
 349 0 l 2,32,33
 286 0 286 0 226 19 c 0,34,35
 168 39 168 39 131 75 c 128,-1,36
 94 111 94 111 73 157 c 0,37,38
 50 206 50 206 50 261 c 2,0,-1
297 828 m 1,39,-1
 376 903 l 1,40,-1
 502 783 l 1,41,-1
 444 727 l 1,42,-1
 297 828 l 1,39,-1
EndSplineSet
Validated: 1
EndChar

StartChar: Uacute
Encoding: 218 218 128
Width: 911
GlyphClass: 2
Flags: W
LayerCount: 2
Fore
SplineSet
46 261 m 2,0,-1
 46 728 l 1,1,-1
 225 728 l 1,2,-1
 233 267 l 2,3,4
 233 247 233 247 243 230 c 128,-1,5
 253 213 253 213 267 202 c 0,6,7
 283 190 283 190 303 182 c 0,8,9
 323 176 323 176 345 176 c 2,10,-1
 563 176 l 2,11,12
 585 176 585 176 605 183 c 0,13,14
 627 190 627 190 642 202 c 0,15,16
 658 215 658 215 669 230 c 0,17,18
 678 247 678 247 679 267 c 2,19,-1
 655 728 l 1,20,-1
 831 728 l 1,21,-1
 862 261 l 2,22,23
 862 205 862 205 840 157 c 0,24,25
 817 109 817 109 781 75 c 0,26,27
 743 38 743 38 686 19 c 0,28,29
 626 0 626 0 563 0 c 2,30,-1
 345 0 l 2,31,32
 282 0 282 0 222 19 c 0,33,34
 164 39 164 39 127 75 c 128,-1,35
 90 111 90 111 69 157 c 0,36,37
 46 206 46 206 46 261 c 2,0,-1
379 786 m 1,38,-1
 504 904 l 1,39,-1
 581 829 l 1,40,-1
 434 730 l 1,41,-1
 379 786 l 1,38,-1
EndSplineSet
Validated: 1
EndChar

StartChar: Ucircumflex
Encoding: 219 219 129
Width: 914
GlyphClass: 2
Flags: W
LayerCount: 2
Fore
SplineSet
49 261 m 2,0,-1
 49 728 l 1,1,-1
 228 728 l 1,2,-1
 237 267 l 2,3,4
 237 247 237 247 246 230 c 0,5,6
 256 213 256 213 270 202 c 0,7,8
 286 190 286 190 306 182 c 0,9,10
 326 176 326 176 348 176 c 2,11,-1
 566 176 l 2,12,13
 588 176 588 176 608 183 c 0,14,15
 630 190 630 190 645 202 c 0,16,17
 661 215 661 215 672 230 c 0,18,19
 681 247 681 247 682 267 c 2,20,-1
 658 728 l 1,21,-1
 835 728 l 1,22,-1
 865 261 l 2,23,24
 865 205 865 205 843 157 c 0,25,26
 820 109 820 109 784 75 c 0,27,28
 746 38 746 38 689 19 c 0,29,30
 629 0 629 0 566 0 c 2,31,-1
 348 0 l 2,32,33
 285 0 285 0 225 19 c 0,34,35
 167 39 167 39 130 75 c 128,-1,36
 93 111 93 111 72 157 c 0,37,38
 49 206 49 206 49 261 c 2,0,-1
291 785 m 1,39,-1
 445 931 l 1,40,-1
 600 785 l 1,41,-1
 543 733 l 1,42,-1
 445 826 l 1,43,-1
 347 733 l 1,44,-1
 291 785 l 1,39,-1
EndSplineSet
Validated: 1
EndChar

StartChar: Udieresis
Encoding: 220 220 130
Width: 922
GlyphClass: 2
Flags: W
LayerCount: 2
Fore
SplineSet
67 260 m 2,0,-1
 67 729 l 1,1,-1
 241 729 l 1,2,-1
 241 266 l 2,3,4
 241 247 241 247 249 231 c 0,5,6
 258 215 258 215 270 203 c 0,7,8
 285 191 285 191 304 184 c 0,9,10
 323 178 323 178 345 177 c 2,11,-1
 579 177 l 2,12,13
 602 177 602 177 620 184 c 0,14,15
 639 191 639 191 653 203 c 128,-1,16
 667 215 667 215 675 231 c 128,-1,17
 683 247 683 247 683 266 c 2,18,-1
 683 729 l 1,19,-1
 857 729 l 1,20,-1
 857 260 l 2,21,22
 857 206 857 206 836 159 c 0,23,24
 814 112 814 112 778 76 c 0,25,26
 740 40 740 40 691 20 c 0,27,28
 639 0 639 0 579 0 c 2,29,-1
 345 0 l 2,30,31
 284 0 284 0 232 20 c 0,32,33
 183 40 183 40 145 76 c 0,34,35
 108 112 108 112 88 159 c 0,36,37
 66 207 66 207 67 260 c 2,0,-1
209 736 m 1,38,-1
 209 816 l 1,39,-1
 397 816 l 1,40,-1
 397 736 l 1,41,-1
 209 736 l 1,38,-1
521 736 m 1,42,-1
 521 816 l 1,43,-1
 710 816 l 1,44,-1
 710 736 l 1,45,-1
 521 736 l 1,42,-1
EndSplineSet
Validated: 33
EndChar

StartChar: agrave
Encoding: 224 224 131
Width: 831
GlyphClass: 2
Flags: W
LayerCount: 2
Fore
SplineSet
25 0 m 1,0,-1
 329 728 l 1,1,-1
 422 728 l 1,2,-1
 275 826 l 1,3,-1
 356 901 l 1,4,-1
 486 783 l 1,5,-1
 424 728 l 1,6,-1
 520 728 l 1,7,-1
 824 0 l 1,8,-1
 636 0 l 1,9,-1
 588 94 l 1,10,-1
 257 94 l 1,11,-1
 213 0 l 1,12,-1
 25 0 l 1,0,-1
331 270 m 1,13,-1
 515 270 l 1,14,-1
 422 485 l 1,15,-1
 331 270 l 1,13,-1
EndSplineSet
Validated: 1
EndChar

StartChar: aacute
Encoding: 225 225 132
Width: 829
GlyphClass: 2
Flags: W
LayerCount: 2
Fore
SplineSet
20 0 m 1,0,-1
 327 728 l 1,1,-1
 514 728 l 1,2,-1
 820 0 l 1,3,-1
 631 0 l 1,4,-1
 583 95 l 1,5,-1
 255 95 l 1,6,-1
 210 0 l 1,7,-1
 20 0 l 1,0,-1
327 270 m 1,8,-1
 511 270 l 1,9,-1
 418 484 l 1,10,-1
 327 270 l 1,8,-1
359 786 m 1,11,-1
 486 904 l 1,12,-1
 564 829 l 1,13,-1
 416 730 l 1,14,-1
 359 786 l 1,11,-1
EndSplineSet
Validated: 1
EndChar

StartChar: acircumflex
Encoding: 226 226 133
Width: 843
GlyphClass: 2
Flags: W
LayerCount: 2
Fore
SplineSet
27 0 m 1,0,-1
 333 729 l 1,1,-1
 524 729 l 1,2,-1
 831 0 l 1,3,-1
 644 0 l 1,4,-1
 597 92 l 1,5,-1
 263 92 l 1,6,-1
 216 0 l 1,7,-1
 27 0 l 1,0,-1
273 785 m 1,8,-1
 430 931 l 1,9,-1
 587 785 l 1,10,-1
 529 733 l 1,11,-1
 430 826 l 1,12,-1
 330 733 l 1,13,-1
 273 785 l 1,8,-1
339 270 m 1,14,-1
 521 270 l 1,15,-1
 430 488 l 1,16,-1
 339 270 l 1,14,-1
EndSplineSet
Validated: 1
EndChar

StartChar: atilde
Encoding: 227 227 134
Width: 856
GlyphClass: 2
Flags: W
LayerCount: 2
Fore
SplineSet
32 0 m 1,0,-1
 338 730 l 1,1,-1
 531 730 l 1,2,-1
 840 0 l 1,3,-1
 649 0 l 1,4,-1
 603 92 l 1,5,-1
 269 92 l 1,6,-1
 222 0 l 1,7,-1
 32 0 l 1,0,-1
213 803 m 1,8,-1
 221 817 l 2,9,10
 231 833 231 833 244 848 c 0,11,12
 257 864 257 864 271 876 c 0,13,14
 287 889 287 889 307 896 c 0,15,16
 329 903 329 903 352 904 c 0,17,18
 380 904 380 904 403 894 c 128,-1,19
 426 884 426 884 445 872 c 0,20,21
 463 862 463 862 480 854 c 0,22,23
 494 848 494 848 506 847 c 1,24,25
 516 848 516 848 522 854 c 0,26,27
 531 865 531 865 537 876 c 2,28,-1
 544 890 l 1,29,-1
 648 843 l 1,30,-1
 641 828 l 2,31,32
 623 794 623 794 595 768 c 0,33,34
 563 738 563 738 516 737 c 0,35,36
 485 737 485 737 461 748 c 0,37,38
 437 757 437 757 418 768 c 0,39,40
 400 779 400 779 384 787 c 0,41,42
 372 793 372 793 364 794 c 0,43,44
 350 793 350 793 342 786 c 0,45,46
 331 776 331 776 324 765 c 2,47,-1
 315 752 l 1,48,-1
 213 803 l 1,8,-1
344 271 m 1,49,-1
 528 271 l 1,50,-1
 436 489 l 1,51,-1
 344 271 l 1,49,-1
EndSplineSet
Validated: 1
EndChar

StartChar: adieresis
Encoding: 228 228 135
Width: 841
GlyphClass: 2
Flags: W
LayerCount: 2
Fore
SplineSet
26 0 m 1,0,-1
 332 729 l 1,1,-1
 523 729 l 1,2,-1
 830 0 l 1,3,-1
 643 0 l 1,4,-1
 596 92 l 1,5,-1
 262 92 l 1,6,-1
 215 0 l 1,7,-1
 26 0 l 1,0,-1
198 761 m 1,8,-1
 198 843 l 1,9,-1
 384 843 l 1,10,-1
 384 761 l 1,11,-1
 198 761 l 1,8,-1
338 270 m 1,12,-1
 520 270 l 1,13,-1
 429 488 l 1,14,-1
 338 270 l 1,12,-1
461 759 m 1,15,-1
 461 841 l 1,16,-1
 650 841 l 1,17,-1
 650 759 l 1,18,-1
 461 759 l 1,15,-1
EndSplineSet
Validated: 1
EndChar

StartChar: aring
Encoding: 229 229 136
Width: 856
GlyphClass: 2
Flags: W
LayerCount: 2
Fore
SplineSet
32 0 m 1,0,-1
 338 730 l 1,1,-1
 415 730 l 1,2,3
 398 732 398 732 381 738 c 0,4,5
 356 748 356 748 340 764 c 0,6,7
 323 781 323 781 311 803 c 0,8,9
 302 824 302 824 302 846 c 0,10,11
 302 875 302 875 311 897 c 0,12,13
 321 920 321 920 340 936 c 0,14,15
 358 952 358 952 381 962 c 0,16,17
 406 971 406 971 432 971 c 0,18,19
 459 971 459 971 482 962 c 0,20,21
 507 952 507 952 524 936 c 0,22,23
 541 919 541 919 552 897 c 0,24,25
 562 874 562 874 562 850 c 0,26,27
 562 825 562 825 552 803 c 0,28,29
 542 780 542 780 524 764 c 128,-1,30
 506 748 506 748 482 738 c 0,31,32
 466 732 466 732 449 730 c 1,33,-1
 531 730 l 1,34,-1
 840 0 l 1,35,-1
 649 0 l 1,36,-1
 603 92 l 1,37,-1
 269 92 l 1,38,-1
 222 0 l 1,39,-1
 32 0 l 1,0,-1
344 271 m 1,40,-1
 528 271 l 1,41,-1
 436 489 l 1,42,-1
 344 271 l 1,40,-1
379 850 m 1,43,44
 380 830 380 830 394 815 c 1,45,46
 410 801 410 801 432 801 c 1,47,48
 455 802 455 802 469 815 c 1,49,50
 484 830 484 830 484 850 c 1,51,52
 483 870 483 870 469 885 c 1,53,54
 453 899 453 899 432 899 c 1,55,56
 409 898 409 898 394 885 c 1,57,58
 379 870 379 870 379 850 c 1,43,44
EndSplineSet
Validated: 1
EndChar

StartChar: ae
Encoding: 230 230 137
Width: 1353
GlyphClass: 2
Flags: W
LayerCount: 2
Fore
SplineSet
45 0 m 1,0,-1
 348 728 l 1,1,-1
 1289 728 l 1,2,-1
 1289 553 l 1,3,-1
 691 553 l 1,4,-1
 691 456 l 1,5,-1
 1001 456 l 1,6,-1
 1001 278 l 1,7,-1
 691 278 l 1,8,-1
 691 177 l 1,9,-1
 1289 177 l 1,10,-1
 1289 0 l 1,11,-1
 508 0 l 1,12,-1
 508 93 l 1,13,-1
 283 93 l 1,14,-1
 237 0 l 1,15,-1
 45 0 l 1,0,-1
353 270 m 1,16,-1
 508 270 l 1,17,-1
 508 553 l 1,18,-1
 473 553 l 1,19,-1
 353 270 l 1,16,-1
EndSplineSet
Validated: 1
EndChar

StartChar: ccedilla
Encoding: 231 231 138
Width: 911
GlyphClass: 2
Flags: W
LayerCount: 2
Fore
SplineSet
61 259 m 2,0,-1
 61 470 l 2,1,2
 61 524 61 524 83 571 c 0,3,4
 105 619 105 619 140 653 c 0,5,6
 178 688 178 688 230 709 c 0,7,8
 283 729 283 729 343 729 c 2,9,-1
 575 729 l 2,10,11
 631 729 631 729 683 709 c 0,12,13
 734 687 734 687 772 652 c 0,14,15
 810 615 810 615 831 567 c 0,16,17
 854 517 854 517 854 462 c 2,18,-1
 854 446 l 1,19,-1
 672 446 l 1,20,-1
 672 462 l 2,21,22
 672 479 672 479 664 496 c 0,23,24
 655 513 655 513 642 526 c 0,25,26
 628 539 628 539 610 548 c 0,27,28
 593 556 593 556 575 556 c 2,29,-1
 343 556 l 2,30,31
 320 556 320 556 303 549 c 0,32,33
 285 541 285 541 271 528 c 0,34,35
 258 515 258 515 251 500 c 0,36,37
 244 483 244 483 244 466 c 2,38,-1
 244 263 l 2,39,40
 244 246 244 246 251 230 c 0,41,42
 258 215 258 215 270 204 c 0,43,44
 283 193 283 193 301 185 c 0,45,46
 319 178 319 178 343 178 c 2,47,-1
 575 178 l 2,48,49
 595 178 595 178 613 185 c 128,-1,50
 631 192 631 192 644 205 c 128,-1,51
 657 218 657 218 665 232 c 0,52,53
 672 248 672 248 672 267 c 2,54,-1
 672 283 l 1,55,-1
 854 283 l 1,56,-1
 854 267 l 2,57,58
 854 210 854 210 831 162 c 0,59,60
 807 113 807 113 770 77 c 0,61,62
 731 41 731 41 682 19 c 0,63,64
 630 -1 630 -1 575 -1 c 2,65,-1
 512 -1 l 1,66,-1
 512 -138 l 1,67,-1
 399 -138 l 1,68,-1
 423 -1 l 1,69,-1
 343 -1 l 2,70,71
 284 -1 284 -1 231 19 c 0,72,73
 179 39 179 39 142 75 c 0,74,75
 104 111 104 111 83 158 c 0,76,77
 61 205 61 205 61 259 c 2,0,-1
EndSplineSet
Validated: 1
EndChar

StartChar: egrave
Encoding: 232 232 139
Width: 868
GlyphClass: 2
Flags: W
LayerCount: 2
Fore
SplineSet
54 0 m 1,0,-1
 54 728 l 1,1,-1
 447 728 l 1,2,-1
 304 828 l 1,3,-1
 382 903 l 1,4,-1
 510 783 l 1,5,-1
 450 728 l 1,6,-1
 840 728 l 1,7,-1
 840 551 l 1,8,-1
 233 551 l 1,9,-1
 233 453 l 1,10,-1
 552 453 l 1,11,-1
 552 280 l 1,12,-1
 233 280 l 1,13,-1
 233 176 l 1,14,-1
 840 176 l 1,15,-1
 840 0 l 1,16,-1
 54 0 l 1,0,-1
EndSplineSet
Validated: 1
EndChar

StartChar: eacute
Encoding: 233 233 140
Width: 871
GlyphClass: 2
Flags: W
LayerCount: 2
Fore
SplineSet
50 0 m 1,0,-1
 50 728 l 1,1,-1
 438 728 l 1,2,-1
 384 783 l 1,3,-1
 508 904 l 1,4,-1
 588 829 l 1,5,-1
 446 728 l 1,6,-1
 836 728 l 1,7,-1
 836 550 l 1,8,-1
 230 550 l 1,9,-1
 230 453 l 1,10,-1
 547 453 l 1,11,-1
 547 280 l 1,12,-1
 230 280 l 1,13,-1
 230 178 l 1,14,-1
 836 178 l 1,15,-1
 836 0 l 1,16,-1
 50 0 l 1,0,-1
EndSplineSet
Validated: 1
EndChar

StartChar: ecircumflex
Encoding: 234 234 141
Width: 876
GlyphClass: 2
Flags: W
LayerCount: 2
Fore
SplineSet
54 0 m 1,0,-1
 54 728 l 1,1,-1
 840 728 l 1,2,-1
 840 551 l 1,3,-1
 233 551 l 1,4,-1
 233 453 l 1,5,-1
 552 453 l 1,6,-1
 552 280 l 1,7,-1
 233 280 l 1,8,-1
 233 176 l 1,9,-1
 840 176 l 1,10,-1
 840 0 l 1,11,-1
 54 0 l 1,0,-1
292 781 m 1,12,-1
 447 925 l 1,13,-1
 602 781 l 1,14,-1
 547 729 l 1,15,-1
 447 820 l 1,16,-1
 350 729 l 1,17,-1
 292 781 l 1,12,-1
EndSplineSet
Validated: 1
EndChar

StartChar: edieresis
Encoding: 235 235 142
Width: 900
GlyphClass: 2
Flags: W
LayerCount: 2
Fore
SplineSet
66 0 m 1,0,-1
 66 729 l 1,1,-1
 853 729 l 1,2,-1
 853 552 l 1,3,-1
 246 552 l 1,4,-1
 246 454 l 1,5,-1
 564 454 l 1,6,-1
 564 280 l 1,7,-1
 246 280 l 1,8,-1
 246 177 l 1,9,-1
 853 177 l 1,10,-1
 853 0 l 1,11,-1
 66 0 l 1,0,-1
210 736 m 1,12,-1
 210 816 l 1,13,-1
 398 816 l 1,14,-1
 398 736 l 1,15,-1
 210 736 l 1,12,-1
520 736 m 1,16,-1
 520 816 l 1,17,-1
 709 816 l 1,18,-1
 709 736 l 1,19,-1
 520 736 l 1,16,-1
EndSplineSet
Validated: 1
EndChar

StartChar: igrave
Encoding: 236 236 143
Width: 294
GlyphClass: 2
Flags: W
LayerCount: 2
Fore
SplineSet
26 830 m 1,0,-1
 101 901 l 1,1,-1
 219 782 l 1,2,-1
 162 728 l 1,3,-1
 26 830 l 1,0,-1
75 0 m 1,4,-1
 75 728 l 1,5,-1
 251 728 l 1,6,-1
 251 0 l 1,7,-1
 75 0 l 1,4,-1
EndSplineSet
Validated: 5
EndChar

StartChar: iacute
Encoding: 237 237 144
Width: 296
GlyphClass: 2
Flags: W
LayerCount: 2
Fore
SplineSet
55 0 m 1,0,-1
 55 729 l 1,1,-1
 143 729 l 1,2,-1
 83 783 l 1,3,-1
 206 903 l 1,4,-1
 279 833 l 1,5,-1
 144 729 l 1,6,-1
 232 729 l 1,7,-1
 232 0 l 1,8,-1
 55 0 l 1,0,-1
EndSplineSet
Validated: 1
EndChar

StartChar: icircumflex
Encoding: 238 238 145
Width: 336
GlyphClass: 2
Flags: W
LayerCount: 2
Fore
SplineSet
30 781 m 1,0,-1
 175 927 l 1,1,-1
 319 781 l 1,2,-1
 267 729 l 1,3,-1
 175 822 l 1,4,-1
 82 729 l 1,5,-1
 30 781 l 1,0,-1
87 0 m 1,6,-1
 87 728 l 1,7,-1
 262 728 l 1,8,-1
 262 0 l 1,9,-1
 87 0 l 1,6,-1
EndSplineSet
Validated: 1
EndChar

StartChar: idieresis
Encoding: 239 239 146
Width: 482
GlyphClass: 2
Flags: W
LayerCount: 2
Fore
SplineSet
14 757 m 1,0,-1
 14 838 l 1,1,-1
 189 838 l 1,2,-1
 189 757 l 1,3,-1
 14 757 l 1,0,-1
137 0 m 1,4,-1
 137 728 l 1,5,-1
 345 728 l 1,6,-1
 345 0 l 1,7,-1
 137 0 l 1,4,-1
262 754 m 1,8,-1
 262 835 l 1,9,-1
 468 835 l 1,10,-1
 468 754 l 1,11,-1
 262 754 l 1,8,-1
EndSplineSet
Validated: 1
EndChar

StartChar: ntilde
Encoding: 241 241 147
Width: 941
GlyphClass: 2
Flags: W
LayerCount: 2
Fore
SplineSet
77 0 m 1,0,-1
 77 728 l 1,1,-1
 243 728 l 1,2,-1
 692 487 l 1,3,-1
 692 728 l 1,4,-1
 869 728 l 1,5,-1
 869 0 l 1,6,-1
 692 0 l 1,7,-1
 692 315 l 1,8,-1
 255 550 l 1,9,-1
 255 0 l 1,10,-1
 77 0 l 1,0,-1
251 803 m 1,11,-1
 259 817 l 2,12,13
 270 833 270 833 282 848 c 0,14,15
 295 864 295 864 309 876 c 0,16,17
 325 889 325 889 345 896 c 0,18,19
 367 903 367 903 390 904 c 0,20,21
 418 904 418 904 441 894 c 128,-1,22
 464 884 464 884 482 872 c 0,23,24
 500 862 500 862 517 854 c 0,25,26
 530 848 530 848 543 847 c 1,27,28
 553 848 553 848 559 854 c 0,29,30
 568 865 568 865 573 876 c 2,31,-1
 581 890 l 1,32,-1
 684 843 l 1,33,-1
 678 828 l 2,34,35
 660 794 660 794 632 768 c 0,36,37
 600 738 600 738 553 737 c 0,38,39
 523 737 523 737 498 748 c 0,40,41
 474 757 474 757 456 768 c 128,-1,42
 438 779 438 779 422 787 c 0,43,44
 410 793 410 793 401 794 c 0,45,46
 387 793 387 793 380 786 c 0,47,48
 369 776 369 776 361 765 c 2,49,-1
 353 752 l 1,50,-1
 251 803 l 1,11,-1
EndSplineSet
Validated: 1
EndChar

StartChar: ograve
Encoding: 242 242 148
Width: 942
GlyphClass: 2
Flags: W
LayerCount: 2
Fore
SplineSet
61 258 m 6,0,-1
 61 469 l 6,1,2
 61 522 61 522 83 569 c 132,-1,3
 105 616 105 616 140 651 c 4,4,5
 177 686 177 686 234 707 c 4,6,7
 294 727 294 727 361 727 c 6,8,-1
 581 727 l 6,9,10
 649 727 649 727 708 707 c 4,11,12
 766 687 766 687 802 651 c 4,13,14
 839 615 839 615 859 569 c 4,15,16
 881 521 881 521 881 469 c 6,17,-1
 881 258 l 6,18,19
 881 205 881 205 859 158 c 132,-1,20
 837 111 837 111 802 76 c 4,21,22
 765 41 765 41 708 20 c 4,23,24
 648 0 648 0 581 0 c 6,25,-1
 361 0 l 6,26,27
 293 0 293 0 234 20 c 4,28,29
 176 40 176 40 140 76 c 4,30,31
 103 112 103 112 83 158 c 4,32,33
 61 206 61 206 61 258 c 6,0,-1
246 262 m 6,34,35
 246 244 246 244 255 229 c 4,36,37
 265 214 265 214 281 202 c 132,-1,38
 297 190 297 190 317 183 c 4,39,40
 339 177 339 177 361 177 c 6,41,-1
 581 177 l 6,42,43
 629 178 629 178 660 202 c 5,44,45
 692 227 692 227 692 262 c 6,46,-1
 692 465 l 6,47,48
 692 483 692 483 684 499 c 4,49,50
 675 515 675 515 659 527 c 132,-1,51
 643 539 643 539 624 546 c 4,52,53
 604 552 604 552 581 553 c 6,54,-1
 361 553 l 6,55,56
 336 553 336 553 318 546 c 4,57,58
 298 538 298 538 282 526 c 4,59,60
 266 513 266 513 256 498 c 4,61,62
 247 483 247 483 246 465 c 6,63,-1
 246 262 l 6,34,35
312 828 m 5,64,-1
 395 903 l 5,65,-1
 514 783 l 5,66,-1
 460 727 l 5,67,-1
 312 828 l 5,64,-1
EndSplineSet
Validated: 5
EndChar

StartChar: oacute
Encoding: 243 243 149
Width: 942
GlyphClass: 2
Flags: W
LayerCount: 2
Fore
SplineSet
61 258 m 2,0,-1
 61 469 l 2,1,2
 61 522 61 522 83 569 c 128,-1,3
 105 616 105 616 140 651 c 0,4,5
 177 686 177 686 234 707 c 0,6,7
 294 727 294 727 361 727 c 2,8,-1
 581 727 l 2,9,10
 649 727 649 727 708 707 c 0,11,12
 766 687 766 687 802 651 c 0,13,14
 839 615 839 615 859 569 c 0,15,16
 881 521 881 521 881 469 c 2,17,-1
 881 258 l 2,18,19
 881 205 881 205 859 158 c 128,-1,20
 837 111 837 111 802 76 c 0,21,22
 765 41 765 41 708 20 c 0,23,24
 648 0 648 0 581 0 c 2,25,-1
 361 0 l 2,26,27
 293 0 293 0 234 20 c 0,28,29
 176 40 176 40 140 76 c 0,30,31
 103 112 103 112 83 158 c 0,32,33
 61 206 61 206 61 258 c 2,0,-1
246 262 m 2,34,35
 246 244 246 244 255 229 c 0,36,37
 265 214 265 214 281 202 c 128,-1,38
 297 190 297 190 317 183 c 0,39,40
 339 177 339 177 361 177 c 2,41,-1
 581 177 l 2,42,43
 629 178 629 178 660 202 c 1,44,45
 692 227 692 227 692 262 c 2,46,-1
 692 465 l 2,47,48
 692 483 692 483 684 499 c 0,49,50
 675 515 675 515 659 527 c 128,-1,51
 643 539 643 539 624 546 c 0,52,53
 604 552 604 552 581 553 c 2,54,-1
 361 553 l 2,55,56
 336 553 336 553 318 546 c 0,57,58
 298 538 298 538 282 526 c 0,59,60
 266 513 266 513 256 498 c 0,61,62
 247 483 247 483 246 465 c 2,63,-1
 246 262 l 2,34,35
372 786 m 1,64,-1
 489 904 l 1,65,-1
 562 829 l 1,66,-1
 424 730 l 1,67,-1
 372 786 l 1,64,-1
EndSplineSet
Validated: 1
EndChar

StartChar: ocircumflex
Encoding: 244 244 150
Width: 942
GlyphClass: 2
Flags: W
LayerCount: 2
Fore
SplineSet
61 258 m 2,0,-1
 61 469 l 2,1,2
 61 522 61 522 83 569 c 128,-1,3
 105 616 105 616 140 651 c 0,4,5
 177 686 177 686 234 707 c 0,6,7
 294 727 294 727 361 727 c 2,8,-1
 581 727 l 2,9,10
 649 727 649 727 708 707 c 0,11,12
 766 687 766 687 802 651 c 0,13,14
 839 615 839 615 859 569 c 0,15,16
 881 521 881 521 881 469 c 2,17,-1
 881 258 l 2,18,19
 881 205 881 205 859 158 c 128,-1,20
 837 111 837 111 802 76 c 0,21,22
 765 41 765 41 708 20 c 0,23,24
 648 0 648 0 581 0 c 2,25,-1
 361 0 l 2,26,27
 293 0 293 0 234 20 c 0,28,29
 176 40 176 40 140 76 c 0,30,31
 103 112 103 112 83 158 c 0,32,33
 61 206 61 206 61 258 c 2,0,-1
246 262 m 2,34,35
 246 244 246 244 255 229 c 0,36,37
 265 214 265 214 281 202 c 128,-1,38
 297 190 297 190 317 183 c 0,39,40
 339 177 339 177 361 177 c 2,41,-1
 581 177 l 2,42,43
 629 178 629 178 660 202 c 1,44,45
 692 227 692 227 692 262 c 2,46,-1
 692 465 l 2,47,48
 692 483 692 483 684 499 c 0,49,50
 675 515 675 515 659 527 c 128,-1,51
 643 539 643 539 624 546 c 0,52,53
 604 552 604 552 581 553 c 2,54,-1
 361 553 l 2,55,56
 336 553 336 553 318 546 c 0,57,58
 298 538 298 538 282 526 c 0,59,60
 266 513 266 513 256 498 c 0,61,62
 247 483 247 483 246 465 c 2,63,-1
 246 262 l 2,34,35
306 781 m 1,64,-1
 463 925 l 1,65,-1
 614 781 l 1,66,-1
 556 729 l 1,67,-1
 463 820 l 1,68,-1
 371 729 l 1,69,-1
 306 781 l 1,64,-1
EndSplineSet
Validated: 1
EndChar

StartChar: otilde
Encoding: 245 245 151
Width: 942
GlyphClass: 2
Flags: W
LayerCount: 2
Fore
SplineSet
61 258 m 2,0,-1
 61 469 l 2,1,2
 61 522 61 522 83 569 c 128,-1,3
 105 616 105 616 140 651 c 0,4,5
 177 686 177 686 234 707 c 0,6,7
 294 727 294 727 361 727 c 2,8,-1
 581 727 l 2,9,10
 649 727 649 727 708 707 c 0,11,12
 766 687 766 687 802 651 c 0,13,14
 839 615 839 615 859 569 c 0,15,16
 881 521 881 521 881 469 c 2,17,-1
 881 258 l 2,18,19
 881 205 881 205 859 158 c 128,-1,20
 837 111 837 111 802 76 c 0,21,22
 765 41 765 41 708 20 c 0,23,24
 648 0 648 0 581 0 c 2,25,-1
 361 0 l 2,26,27
 293 0 293 0 234 20 c 0,28,29
 176 40 176 40 140 76 c 0,30,31
 103 112 103 112 83 158 c 0,32,33
 61 206 61 206 61 258 c 2,0,-1
243 803 m 1,34,-1
 253 817 l 2,35,36
 265 833 265 833 278 848 c 0,37,38
 293 864 293 864 309 876 c 0,39,40
 327 889 327 889 349.5 896.5 c 128,-1,41
 372 904 372 904 393 904 c 0,42,43
 419 904 419 904 440 894 c 0,44,45
 460 884 460 884 478.5 873 c 128,-1,46
 497 862 497 862 512 854 c 0,47,48
 525 848 525 848 536 847 c 1,49,50
 545 848 545 848 550 854 c 0,51,52
 559 865 559 865 564 876 c 2,53,-1
 571 890 l 1,54,-1
 686 843 l 1,55,-1
 678 828 l 2,56,57
 658 794 658 794 627 768 c 0,58,59
 591 738 591 738 545 737 c 0,60,61
 517 737 517 737 494 748 c 0,62,63
 471 757 471 757 454 768 c 128,-1,64
 437 779 437 779 423 787 c 0,65,66
 412 793 412 793 403 794 c 0,67,68
 390 793 390 793 384 786 c 0,69,70
 374 776 374 776 367 765 c 2,71,-1
 358 752 l 1,72,-1
 243 803 l 1,34,-1
246 262 m 2,73,74
 246 244 246 244 255 229 c 0,75,76
 265 214 265 214 281 202 c 128,-1,77
 297 190 297 190 317 183 c 0,78,79
 339 177 339 177 361 177 c 2,80,-1
 581 177 l 2,81,82
 629 178 629 178 660 202 c 1,83,84
 692 227 692 227 692 262 c 2,85,-1
 692 465 l 2,86,87
 692 483 692 483 684 499 c 0,88,89
 675 515 675 515 659 527 c 128,-1,90
 643 539 643 539 624 546 c 0,91,92
 604 552 604 552 581 553 c 2,93,-1
 361 553 l 2,94,95
 336 553 336 553 318 546 c 0,96,97
 298 538 298 538 282 526 c 0,98,99
 266 513 266 513 256 498 c 0,100,101
 247 483 247 483 246 465 c 2,102,-1
 246 262 l 2,73,74
EndSplineSet
Validated: 1
EndChar

StartChar: odieresis
Encoding: 246 246 152
Width: 942
GlyphClass: 2
Flags: W
LayerCount: 2
Fore
SplineSet
61 258 m 2,0,-1
 61 469 l 2,1,2
 61 522 61 522 83 569 c 128,-1,3
 105 616 105 616 140 651 c 0,4,5
 177 686 177 686 234 707 c 0,6,7
 294 727 294 727 361 727 c 2,8,-1
 581 727 l 2,9,10
 649 727 649 727 708 707 c 0,11,12
 766 687 766 687 802 651 c 0,13,14
 839 615 839 615 859 569 c 0,15,16
 881 521 881 521 881 469 c 2,17,-1
 881 258 l 2,18,19
 881 205 881 205 859 158 c 128,-1,20
 837 111 837 111 802 76 c 0,21,22
 765 41 765 41 708 20 c 0,23,24
 648 0 648 0 581 0 c 2,25,-1
 361 0 l 2,26,27
 293 0 293 0 234 20 c 0,28,29
 176 40 176 40 140 76 c 0,30,31
 103 112 103 112 83 158 c 0,32,33
 61 206 61 206 61 258 c 2,0,-1
214 736 m 1,34,-1
 214 816 l 1,35,-1
 417 816 l 1,36,-1
 417 736 l 1,37,-1
 214 736 l 1,34,-1
246 262 m 2,38,39
 246 244 246 244 255 229 c 0,40,41
 265 214 265 214 281 202 c 128,-1,42
 297 190 297 190 317 183 c 0,43,44
 339 177 339 177 361 177 c 2,45,-1
 581 177 l 2,46,47
 629 178 629 178 660 202 c 1,48,49
 692 227 692 227 692 262 c 2,50,-1
 692 465 l 2,51,52
 692 483 692 483 684 499 c 0,53,54
 675 515 675 515 659 527 c 128,-1,55
 643 539 643 539 624 546 c 0,56,57
 604 552 604 552 581 553 c 2,58,-1
 361 553 l 2,59,60
 336 553 336 553 318 546 c 0,61,62
 298 538 298 538 282 526 c 0,63,64
 266 513 266 513 256 498 c 0,65,66
 247 483 247 483 246 465 c 2,67,-1
 246 262 l 2,38,39
532 736 m 1,68,-1
 532 816 l 1,69,-1
 736 816 l 1,70,-1
 736 736 l 1,71,-1
 532 736 l 1,68,-1
EndSplineSet
Validated: 1
EndChar

StartChar: ugrave
Encoding: 249 249 153
Width: 880
GlyphClass: 2
Flags: W
LayerCount: 2
Fore
SplineSet
50 261 m 2,0,-1
 50 728 l 1,1,-1
 226 728 l 1,2,-1
 226 267 l 2,3,4
 226 247 226 247 234 230 c 0,5,6
 243 213 243 213 256 202 c 0,7,8
 270 190 270 190 288 182 c 0,9,10
 306 176 306 176 326 176 c 2,11,-1
 560 176 l 2,12,13
 579 176 579 176 597 183 c 128,-1,14
 615 190 615 190 630 202 c 0,15,16
 644 215 644 215 653 230 c 0,17,18
 661 247 661 247 663 267 c 2,19,-1
 663 728 l 1,20,-1
 836 728 l 1,21,-1
 836 261 l 2,22,23
 836 205 836 205 813 157 c 128,-1,24
 790 109 790 109 755 75 c 0,25,26
 717 38 717 38 669 19 c 0,27,28
 616 0 616 0 560 0 c 2,29,-1
 326 0 l 2,30,31
 270 0 270 0 217 19 c 0,32,33
 168 39 168 39 131 75 c 128,-1,34
 94 111 94 111 73 157 c 0,35,36
 50 206 50 206 50 261 c 2,0,-1
295 828 m 1,37,-1
 375 903 l 1,38,-1
 503 783 l 1,39,-1
 444 727 l 1,40,-1
 295 828 l 1,37,-1
EndSplineSet
Validated: 1
EndChar

StartChar: uacute
Encoding: 250 250 154
Width: 922
GlyphClass: 2
Flags: W
LayerCount: 2
Fore
SplineSet
46 261 m 2,0,-1
 46 728 l 1,1,-1
 222 728 l 1,2,-1
 222 267 l 2,3,4
 222 247 222 247 230 230 c 0,5,6
 239 213 239 213 252 202 c 0,7,8
 266 190 266 190 284 182 c 0,9,10
 302 176 302 176 322 176 c 2,11,-1
 556 176 l 2,12,13
 575 176 575 176 593 183 c 128,-1,14
 611 190 611 190 626 202 c 0,15,16
 640 215 640 215 649 230 c 0,17,18
 657 247 657 247 658 267 c 2,19,-1
 658 728 l 1,20,-1
 831 728 l 1,21,-1
 831 261 l 2,22,23
 831 205 831 205 809 157 c 0,24,25
 786 109 786 109 751 75 c 0,26,27
 713 38 713 38 665 19 c 0,28,29
 612 0 612 0 556 0 c 2,30,-1
 322 0 l 2,31,32
 266 0 266 0 213 19 c 0,33,34
 164 39 164 39 127 75 c 128,-1,35
 90 111 90 111 69 157 c 0,36,37
 46 206 46 206 46 261 c 2,0,-1
378 786 m 1,38,-1
 505 904 l 1,39,-1
 583 829 l 1,40,-1
 433 730 l 1,41,-1
 378 786 l 1,38,-1
EndSplineSet
Validated: 1
EndChar

StartChar: ucircumflex
Encoding: 251 251 155
Width: 953
GlyphClass: 2
Flags: W
LayerCount: 2
Fore
SplineSet
67 260 m 2,0,-1
 67 729 l 1,1,-1
 244 729 l 1,2,-1
 251 266 l 2,3,4
 251 247 251 247 260 231 c 0,5,6
 270 215 270 215 285 203 c 0,7,8
 301 191 301 191 323 184 c 0,9,10
 346 178 346 178 369 177 c 2,11,-1
 586 177 l 2,12,13
 612 177 612 177 632 184 c 0,14,15
 654 191 654 191 670 203 c 128,-1,16
 686 215 686 215 694 231 c 0,17,18
 703 247 703 247 703 266 c 2,19,-1
 680 729 l 1,20,-1
 857 729 l 1,21,-1
 888 260 l 2,22,23
 888 206 888 206 866 159 c 128,-1,24
 844 112 844 112 809 76 c 0,25,26
 771 40 771 40 714 20 c 0,27,28
 654 0 654 0 586 0 c 2,29,-1
 369 0 l 2,30,31
 300 0 300 0 241 20 c 0,32,33
 183 40 183 40 145 76 c 0,34,35
 108 112 108 112 88 159 c 0,36,37
 66 207 66 207 67 260 c 2,0,-1
307 785 m 1,38,-1
 462 931 l 1,39,-1
 616 785 l 1,40,-1
 559 733 l 1,41,-1
 462 826 l 1,42,-1
 364 733 l 1,43,-1
 307 785 l 1,38,-1
EndSplineSet
Validated: 33
EndChar

StartChar: udieresis
Encoding: 252 252 156
Width: 906
GlyphClass: 2
Flags: W
LayerCount: 2
Fore
SplineSet
59 261 m 2,0,-1
 59 728 l 1,1,-1
 236 728 l 1,2,-1
 236 267 l 2,3,4
 236 247 236 247 244 230 c 0,5,6
 253 213 253 213 266 202 c 0,7,8
 280 190 280 190 298 182 c 0,9,10
 316 176 316 176 335 176 c 2,11,-1
 571 176 l 2,12,13
 589 176 589 176 607 183 c 128,-1,14
 625 190 625 190 640 202 c 0,15,16
 654 215 654 215 664 230 c 0,17,18
 672 247 672 247 673 267 c 2,19,-1
 673 728 l 1,20,-1
 847 728 l 1,21,-1
 847 261 l 2,22,23
 847 206 847 206 825 159 c 0,24,25
 802 112 802 112 767 76 c 0,26,27
 730 40 730 40 682 20 c 0,28,29
 629 0 629 0 571 0 c 2,30,-1
 335 0 l 2,31,32
 276 0 276 0 224 20 c 0,33,34
 175 40 175 40 139 76 c 0,35,36
 102 112 102 112 81 159 c 0,37,38
 59 207 59 207 59 261 c 2,0,-1
226 733 m 1,39,-1
 226 815 l 1,40,-1
 414 815 l 1,41,-1
 414 733 l 1,42,-1
 226 733 l 1,39,-1
493 733 m 1,43,-1
 493 815 l 1,44,-1
 680 815 l 1,45,-1
 680 733 l 1,46,-1
 493 733 l 1,43,-1
EndSplineSet
Validated: 1
EndChar

StartChar: ydieresis
Encoding: 255 255 157
Width: 835
GlyphClass: 2
Flags: W
LayerCount: 2
Fore
SplineSet
26 729 m 1,0,-1
 253 729 l 1,1,-1
 436 502 l 1,2,-1
 614 729 l 1,3,-1
 843 729 l 1,4,-1
 537 341 l 1,5,-1
 537 0 l 1,6,-1
 360 0 l 1,7,-1
 360 341 l 1,8,-1
 26 729 l 1,0,-1
185 738 m 1,9,-1
 185 818 l 1,10,-1
 373 818 l 1,11,-1
 373 738 l 1,12,-1
 185 738 l 1,9,-1
495 738 m 1,13,-1
 495 818 l 1,14,-1
 682 818 l 1,15,-1
 682 738 l 1,16,-1
 495 738 l 1,13,-1
EndSplineSet
Validated: 1
EndChar

StartChar: dotlessi
Encoding: 305 305 158
Width: 316
GlyphClass: 2
Flags: W
LayerCount: 2
Fore
SplineSet
72 0 m 1,0,-1
 72 729 l 1,1,-1
 247 729 l 1,2,-1
 247 0 l 1,3,-1
 72 0 l 1,0,-1
EndSplineSet
Validated: 1
EndChar

StartChar: ij
Encoding: 307 307 159
Width: 928
GlyphClass: 3
Flags: W
LayerCount: 2
Fore
SplineSet
72 0 m 1,0,-1
 72 730 l 1,1,-1
 252 730 l 1,2,-1
 252 0 l 1,3,-1
 72 0 l 1,0,-1
296 261 m 2,4,-1
 296 276 l 1,5,-1
 483 276 l 1,6,-1
 483 261 l 2,7,8
 483 242 483 242 492 226 c 0,9,10
 500 210 500 210 513 198 c 0,11,12
 527 186 527 186 544 178 c 0,13,14
 562 171 562 171 582 171 c 0,15,16
 605 171 605 171 623 178 c 0,17,18
 641 186 641 186 654 199 c 0,19,20
 667 211 667 211 675 227 c 0,21,22
 682 244 682 244 682 261 c 2,23,-1
 682 730 l 1,24,-1
 863 730 l 1,25,-1
 863 261 l 2,26,27
 863 210 863 210 843 164 c 0,28,29
 821 118 821 118 785 82 c 0,30,31
 748 47 748 47 697 25 c 0,32,33
 644 3 644 3 582 3 c 0,34,35
 521 3 521 3 469 24 c 0,36,37
 417 46 417 46 378 80 c 0,38,39
 339 116 339 116 317 163 c 128,-1,40
 295 210 295 210 296 261 c 2,4,-1
EndSplineSet
Validated: 33
Ligature2: "sous-table 'clig' Ligatures contextuelles dans Latin lookup 0" I J
EndChar

StartChar: OE
Encoding: 338 338 160
Width: 1495
GlyphClass: 2
Flags: W
LayerCount: 2
Fore
SplineSet
72 257 m 2,0,-1
 72 468 l 2,1,2
 72 521 72 521 93 568 c 0,3,4
 115 615 115 615 151 650 c 0,5,6
 188 685 188 685 238 706 c 0,7,8
 289 726 289 726 345 726 c 2,9,-1
 518 726 l 2,10,11
 572 726 572 726 620 707 c 0,12,13
 653 694 653 694 680 675 c 1,14,-1
 680 726 l 1,15,-1
 1456 726 l 1,16,-1
 1456 552 l 1,17,-1
 858 552 l 1,18,-1
 858 454 l 1,19,-1
 1171 454 l 1,20,-1
 1171 276 l 1,21,-1
 858 276 l 1,22,-1
 858 175 l 1,23,-1
 1456 175 l 1,24,-1
 1456 -2 l 1,25,-1
 680 -2 l 1,26,-1
 680 49 l 1,27,28
 651 30 651 30 620 17 c 0,29,30
 571 -1 571 -1 518 -1 c 2,31,-1
 345 -1 l 2,32,33
 288 -1 288 -1 238 19 c 0,34,35
 187 39 187 39 151 75 c 0,36,37
 114 111 114 111 93 157 c 0,38,39
 71 205 71 205 72 257 c 2,0,-1
247 261 m 2,40,41
 247 243 247 243 255 228 c 128,-1,42
 263 213 263 213 276 201 c 0,43,44
 290 189 290 189 307 182 c 0,45,46
 325 176 325 176 345 176 c 2,47,-1
 570 176 l 2,48,49
 611 177 611 177 638 201 c 1,50,51
 665 226 665 226 665 261 c 2,52,-1
 665 464 l 2,53,54
 665 482 665 482 657 498 c 128,-1,55
 649 514 649 514 637 526 c 0,56,57
 623 538 623 538 607 545 c 0,58,59
 590 551 590 551 570 552 c 2,60,-1
 345 552 l 2,61,62
 323 552 323 552 308 545 c 0,63,64
 291 537 291 537 278 525 c 0,65,66
 264 512 264 512 255 497 c 0,67,68
 248 482 248 482 247 464 c 2,69,-1
 247 261 l 2,40,41
EndSplineSet
Validated: 33
EndChar

StartChar: oe
Encoding: 339 339 161
Width: 1525
GlyphClass: 2
Flags: W
LayerCount: 2
Fore
SplineSet
72 257 m 2,0,-1
 72 468 l 2,1,2
 72 521 72 521 93 568 c 0,3,4
 115 615 115 615 151 650 c 0,5,6
 188 685 188 685 238 706 c 0,7,8
 289 726 289 726 345 726 c 2,9,-1
 518 726 l 2,10,11
 572 726 572 726 620 707 c 0,12,13
 653 694 653 694 680 675 c 1,14,-1
 680 726 l 1,15,-1
 1456 726 l 1,16,-1
 1456 552 l 1,17,-1
 858 552 l 1,18,-1
 858 454 l 1,19,-1
 1171 454 l 1,20,-1
 1171 276 l 1,21,-1
 858 276 l 1,22,-1
 858 175 l 1,23,-1
 1456 175 l 1,24,-1
 1456 -2 l 1,25,-1
 680 -2 l 1,26,-1
 680 49 l 1,27,28
 651 30 651 30 620 17 c 0,29,30
 571 -1 571 -1 518 -1 c 2,31,-1
 345 -1 l 2,32,33
 288 -1 288 -1 238 19 c 0,34,35
 187 39 187 39 151 75 c 0,36,37
 114 111 114 111 93 157 c 0,38,39
 71 205 71 205 72 257 c 2,0,-1
247 261 m 2,40,41
 247 243 247 243 255 228 c 128,-1,42
 263 213 263 213 276 201 c 0,43,44
 290 189 290 189 307 182 c 0,45,46
 325 176 325 176 345 176 c 2,47,-1
 570 176 l 2,48,49
 611 177 611 177 638 201 c 1,50,51
 665 226 665 226 665 261 c 2,52,-1
 665 464 l 2,53,54
 665 482 665 482 657 498 c 128,-1,55
 649 514 649 514 637 526 c 0,56,57
 623 538 623 538 607 545 c 0,58,59
 590 551 590 551 570 552 c 2,60,-1
 345 552 l 2,61,62
 323 552 323 552 308 545 c 0,63,64
 291 537 291 537 278 525 c 0,65,66
 264 512 264 512 255 497 c 0,67,68
 248 482 248 482 247 464 c 2,69,-1
 247 261 l 2,40,41
EndSplineSet
Validated: 33
EndChar

StartChar: Ydieresis
Encoding: 376 376 162
Width: 835
GlyphClass: 2
Flags: W
LayerCount: 2
Fore
SplineSet
26 729 m 1,0,-1
 247 729 l 1,1,-1
 436 502 l 1,2,-1
 620 729 l 1,3,-1
 843 729 l 1,4,-1
 529 341 l 1,5,-1
 529 0 l 1,6,-1
 337 0 l 1,7,-1
 337 341 l 1,8,-1
 26 729 l 1,0,-1
183 738 m 1,9,-1
 183 818 l 1,10,-1
 371 818 l 1,11,-1
 371 738 l 1,12,-1
 183 738 l 1,9,-1
497 738 m 1,13,-1
 497 818 l 1,14,-1
 684 818 l 1,15,-1
 684 738 l 1,16,-1
 497 738 l 1,13,-1
EndSplineSet
Validated: 1
EndChar

StartChar: circumflex
Encoding: 710 710 163
Width: 883
GlyphClass: 2
Flags: W
LayerCount: 2
Fore
SplineSet
291 808 m 1,0,-1
 436 931 l 1,1,-1
 583 808 l 1,2,-1
 528 764 l 1,3,-1
 436 857 l 1,4,-1
 343 764 l 1,5,-1
 291 808 l 1,0,-1
EndSplineSet
Validated: 1
EndChar

StartChar: endash
Encoding: 8211 8211 166
Width: 914
GlyphClass: 2
Flags: W
LayerCount: 2
Fore
SplineSet
72 231 m 1,0,-1
 72 384 l 1,1,-1
 620 384 l 1,2,-1
 620 231 l 1,3,-1
 72 231 l 1,0,-1
EndSplineSet
Validated: 1
EndChar

StartChar: emdash
Encoding: 8212 8212 167
Width: 914
GlyphClass: 2
Flags: W
LayerCount: 2
Fore
SplineSet
72 231 m 1,0,-1
 72 384 l 1,1,-1
 861 384 l 1,2,-1
 861 231 l 1,3,-1
 72 231 l 1,0,-1
EndSplineSet
Validated: 1
EndChar

StartChar: quoteleft
Encoding: 8216 8216 168
Width: 297
GlyphClass: 2
Flags: W
LayerCount: 2
Fore
SplineSet
73 516 m 1,0,-1
 73 662 l 1,1,-1
 225 738 l 1,2,-1
 225 516 l 1,3,-1
 73 516 l 1,0,-1
EndSplineSet
Validated: 1
EndChar

StartChar: quoteright
Encoding: 8217 8217 169
Width: 297
GlyphClass: 2
Flags: W
LayerCount: 2
Fore
SplineSet
73 538 m 1,0,-1
 73 729 l 1,1,-1
 225 729 l 1,2,-1
 225 603 l 1,3,-1
 73 538 l 1,0,-1
EndSplineSet
Validated: 1
EndChar

StartChar: quotedblleft
Encoding: 8220 8220 171
Width: 512
GlyphClass: 2
Flags: W
LayerCount: 2
Fore
SplineSet
73 516 m 1,0,-1
 73 662 l 1,1,-1
 236 738 l 1,2,-1
 236 516 l 1,3,-1
 73 516 l 1,0,-1
275 516 m 1,4,-1
 275 662 l 1,5,-1
 438 738 l 1,6,-1
 438 516 l 1,7,-1
 275 516 l 1,4,-1
EndSplineSet
Validated: 1
EndChar

StartChar: quotedblright
Encoding: 8221 8221 172
Width: 512
GlyphClass: 2
Flags: W
LayerCount: 2
Fore
SplineSet
73 538 m 1,0,-1
 73 729 l 1,1,-1
 236 729 l 1,2,-1
 236 603 l 1,3,-1
 73 538 l 1,0,-1
275 538 m 1,4,-1
 275 729 l 1,5,-1
 438 729 l 1,6,-1
 438 603 l 1,7,-1
 275 538 l 1,4,-1
EndSplineSet
Validated: 1
EndChar

StartChar: bullet
Encoding: 8226 8226 173
Width: 563
GlyphClass: 2
Flags: W
LayerCount: 2
Fore
SplineSet
74 349 m 0,0,1
 74 390 74 390 89 426 c 0,2,3
 105 462 105 462 131 489 c 0,4,5
 159 516 159 516 195 531 c 0,6,7
 239 546 239 546 287 547 c 0,8,9
 337 547 337 547 379 531 c 0,10,11
 415 515 415 515 442 489 c 0,12,13
 469 461 469 461 484 426 c 0,14,15
 499 389 499 389 500 349 c 0,16,17
 500 308 500 308 484 272 c 128,-1,18
 468 236 468 236 442 209 c 0,19,20
 414 182 414 182 379 167 c 0,21,22
 336 152 336 152 287 152 c 0,23,24
 237 152 237 152 195 167 c 0,25,26
 159 183 159 183 131 209 c 0,27,28
 104 237 104 237 89 272 c 0,29,30
 74 309 74 309 74 349 c 0,0,1
EndSplineSet
Validated: 1
EndChar

StartChar: ellipsis
Encoding: 8230 8230 174
Width: 850
GlyphClass: 2
Flags: W
LayerCount: 2
Fore
SplineSet
72 -31 m 1,0,-1
 72 122 l 1,1,-1
 226 122 l 1,2,-1
 226 -31 l 1,3,-1
 72 -31 l 1,0,-1
345 -31 m 1,4,-1
 345 122 l 1,5,-1
 508 122 l 1,6,-1
 508 -31 l 1,7,-1
 345 -31 l 1,4,-1
627 -31 m 1,8,-1
 627 122 l 1,9,-1
 781 122 l 1,10,-1
 781 -31 l 1,11,-1
 627 -31 l 1,8,-1
EndSplineSet
Validated: 1
EndChar

StartChar: Euro
Encoding: 8364 8364 175
Width: 655
GlyphClass: 2
Flags: W
LayerCount: 2
Fore
SplineSet
72 198 m 1,0,-1
 72 331 l 1,1,-1
 160 331 l 1,2,3
 159 349 159 349 159 366.5 c 128,-1,4
 159 384 159 384 160 402 c 1,5,-1
 72 402 l 1,6,-1
 72 536 l 1,7,-1
 199 536 l 1,8,9
 224 576 224 576 257 609 c 0,10,11
 297 646 297 646 347 673 c 0,12,13
 398 700 398 700 458 715 c 0,14,15
 512 730 512 730 568 730 c 2,16,-1
 584 730 l 1,17,-1
 584 591 l 1,18,-1
 568 591 l 2,19,20
 508 591 508 591 460 570 c 0,21,22
 421 556 421 556 390 536 c 1,23,-1
 584 536 l 1,24,-1
 584 402 l 1,25,-1
 315 402 l 1,26,27
 314 395 314 395 313 390 c 0,28,29
 312 378 312 378 311 367 c 0,30,31
 311 354 311 354 313 342 c 0,32,33
 314 337 314 337 314 331 c 1,34,-1
 584 331 l 1,35,-1
 584 198 l 1,36,-1
 387 198 l 1,37,38
 396 191 396 191 404 186 c 0,39,40
 429 172 429 172 458 162 c 0,41,42
 484 152 484 152 511 146 c 0,43,44
 540 141 540 141 568 141 c 2,45,-1
 584 141 l 1,46,-1
 584 2 l 1,47,-1
 568 2 l 2,48,49
 510 2 510 2 458 17 c 0,50,51
 398 32 398 32 347 59 c 0,52,53
 296 87 296 87 257 124 c 0,54,55
 221 159 221 159 199 198 c 1,56,-1
 72 198 l 1,0,-1
EndSplineSet
Validated: 1
EndChar

StartChar: trademark
Encoding: 8482 8482 176
Width: 603
GlyphClass: 2
Flags: W
LayerCount: 2
Fore
SplineSet
73 659 m 1,0,-1
 73 727 l 1,1,-1
 295 727 l 1,2,-1
 300 727 l 1,3,-1
 361 727 l 1,4,-1
 416 677 l 1,5,-1
 472 727 l 1,6,-1
 530 727 l 1,7,-1
 530 511 l 1,8,-1
 462 511 l 1,9,-1
 462 623 l 1,10,-1
 416 582 l 1,11,-1
 370 622 l 1,12,-1
 370 511 l 1,13,-1
 295 511 l 1,14,-1
 295 659 l 1,15,-1
 216 659 l 1,16,-1
 216 511 l 1,17,-1
 147 511 l 1,18,-1
 147 659 l 1,19,-1
 73 659 l 1,0,-1
EndSplineSet
Validated: 1
EndChar

